<svg width="559" height="653" viewBox="0 0 559 653" fill="none" xmlns="http://www.w3.org/2000/svg">
<g style="mix-blend-mode:soft-light" opacity="0.85">
<mask id="mask0_34_428" style="mask-type:luminance" maskUnits="userSpaceOnUse" x="554" y="57" width="416" height="536">
<path d="M591.213 92.4373C573.736 109.631 553.091 142.029 554.489 198.787C554.489 199.464 554.489 199.988 554.489 200.36V592.157L583.261 555.127V200.36C583.261 199.835 583.261 199.049 583.261 198.175C582.125 151.751 597.92 126.256 611.378 112.973C630.712 94.0103 660.139 85.2498 698.764 86.932H946.964L969.313 58.1818H699.769C696.361 58.0289 692.975 57.9634 689.676 57.9634C647.709 57.9634 614.633 69.5202 591.366 92.4373" fill="white"/>
</mask>
<g mask="url(#mask0_34_428)">
<path d="M969.291 57.9634H553.091V592.157H969.291V57.9634Z" fill="white"/>
</g>
<path d="M699.463 0.00446896H697.584C631.258 0.00446896 579.875 17.7221 544.898 52.6548C528.306 69.4051 515.5 89.5195 507.344 111.641C499.171 89.5227 486.359 69.4102 469.768 52.6548C434.442 17.3725 382.381 -0.32323 315.181 0.00446896H0L22.3272 28.7546H316.994C375.434 28.7546 419.958 43.654 449.341 73.0159C490.457 114.088 492.816 173.816 492.86 201.408V206.586C492.86 207.744 492.86 208.771 492.86 209.776V634.474L507.279 653L521.675 634.474V209.776C521.675 208.793 521.675 207.744 521.675 206.586V201.408C521.675 173.816 524.079 114.022 565.194 73.0159C594.578 43.6322 639.101 28.7546 697.606 28.7546H992.164L1014.49 0.00446896H699.463Z" fill="white"/>
<mask id="mask1_34_428" style="mask-type:luminance" maskUnits="userSpaceOnUse" x="45" y="57" width="416" height="536">
<path d="M314.788 58.1818H45.1787L67.5278 86.932H315.727C354.396 85.2498 383.801 94.0103 403.114 112.973C416.571 126.081 432.366 151.664 431.23 198.175C431.23 199.136 431.23 199.923 431.23 200.36V555.127L460.002 592.157V200.36C460.002 199.988 460.002 199.464 460.002 198.787C461.401 141.985 440.799 109.631 423.278 92.4373C399.924 69.5421 366.87 57.9634 324.968 57.9634C321.67 57.9634 318.283 57.9634 314.875 58.1818" fill="white"/>
</mask>
<g mask="url(#mask1_34_428)">
<path d="M461.2 58H45V592.194H461.2V58Z" fill="white"/>
</g>
<path d="M399.771 204.598C399.771 183.254 399.902 153.979 379.388 134.383C364.991 120.62 343.866 114.568 314.766 115.923H90.0298L112.379 144.695H315.771C336.46 143.69 351.184 147.229 359.464 155.181C371.065 166.257 370.999 186.596 370.955 204.554V477.637L399.706 514.667V204.598H399.771Z" fill="white"/>
</g>
</svg>
