<svg width="80" height="80" viewBox="0 0 80 80" fill="none" xmlns="http://www.w3.org/2000/svg">
<circle cx="40" cy="40" r="40" fill="white"/>
<path d="M52.6017 20.2757L52.326 20.5514V29.6417V38.7321H51.2312H50.1365V31.2636V23.7951L49.8608 23.5193L49.5851 23.2436H47.8011C46.0982 23.2436 46.0171 23.2517 45.7981 23.422C45.3359 23.7869 45.3521 23.5031 45.3521 31.4339V38.7321H43.7303H42.1085V35.2046V31.6771L42.295 31.6447C42.3923 31.6204 42.7815 31.5474 43.1545 31.4825C43.9411 31.3365 44.1844 31.2068 44.3466 30.8257C44.5007 30.4527 44.5007 28.9281 44.3466 28.5713C44.2006 28.2145 43.8681 28.0037 43.4546 28.0199C42.8058 28.0361 22.387 31.669 22.1843 31.8069C21.8599 32.0177 21.7545 32.3907 21.7545 33.3395C21.7545 34.2802 21.8518 34.6451 22.1681 34.8478C22.4843 35.0505 22.6709 35.0667 23.3845 34.9532C23.7575 34.8965 24.09 34.8397 24.1305 34.8397C24.1629 34.8397 24.1792 37.4589 24.171 40.6539L24.1467 46.4763L22.906 46.5168C21.7951 46.5493 21.6491 46.5736 21.5437 46.7115C21.4464 46.8493 21.4302 47.6683 21.4302 51.7229V56.5722H21.0734C20.676 56.5722 20.2381 56.8236 20.0678 57.1398C19.9948 57.2858 19.9705 57.6588 19.9867 58.4129L20.0111 59.4915L20.2787 59.751L20.5382 60.0186H40.0001H59.462L59.7215 59.751L59.9891 59.4915L60.0134 58.4129C60.0296 57.6588 60.0053 57.2858 59.9323 57.1398C59.7783 56.856 59.3242 56.5722 59.0079 56.5722H58.7322V48.0738C58.7322 40.1512 58.7241 39.5673 58.5862 39.3078C58.4078 38.951 57.9943 38.7321 57.4996 38.7321H57.1104V29.812C57.1104 20.1216 57.1266 20.5433 56.6644 20.1784C56.4454 20.0081 56.3643 20 54.6614 20H52.8774L52.6017 20.2757ZM55.9751 21.6623V22.1894H54.7182H53.4612V21.6623V21.1353H54.7182H55.9751V21.6623ZM55.9751 31.0284V38.7321H54.7182H53.4612V31.0284V23.3247H54.7182H55.9751V31.0284ZM49.0012 24.906V25.4331H47.7443H46.4874V24.906V24.3789H47.7443H49.0012V24.906ZM49.0012 32.6502V38.7321H47.7443H46.4874V32.6502V26.5684H47.7443H49.0012V32.6502ZM43.3248 29.7228C43.3248 30.2742 43.3167 30.2905 43.1059 30.331C42.7653 30.404 23.0277 33.8666 22.9547 33.8666C22.9141 33.8666 22.8898 33.6152 22.8898 33.3071C22.8898 32.7556 22.8898 32.7475 23.1412 32.6989C23.279 32.6746 25.874 32.2123 28.9149 31.6771C31.9558 31.1419 36.3834 30.3634 38.7432 29.9418C41.111 29.5282 43.1059 29.1795 43.187 29.1714C43.3086 29.1633 43.3248 29.2444 43.3248 29.7228ZM40.8921 35.3262V38.7321H38.4188C36.3591 38.7321 35.8969 38.7564 35.7022 38.8537C35.2157 39.1051 35.2157 39.1132 35.2157 42.9894V46.5168H30.2691H25.3225V40.5647V34.6126L25.582 34.564C25.728 34.5397 28.6797 34.0207 32.1342 33.4206C35.5887 32.8124 38.8729 32.2285 39.4324 32.1312C39.992 32.0258 40.5434 31.9366 40.6731 31.9285L40.8921 31.9204V35.3262ZM57.5969 48.2198V56.5722H46.9739H36.351V48.2198V39.8674H46.9739H57.5969V48.2198ZM35.2157 52.1121V56.5722H34.4048H33.5939V53.4096C33.5939 49.9794 33.5858 49.9389 33.156 49.647C32.9695 49.5334 32.5235 49.5172 28.8419 49.5172H24.7387L24.463 49.7929L24.1873 50.0686V53.3204V56.5722H23.3764H22.5654V52.1121V47.6521H28.8906H35.2157V52.1121ZM28.3229 53.6123V56.5722H26.8227H25.3225V53.6123V50.6525H26.8227H28.3229V53.6123ZM32.4586 53.6123V56.5722H30.9584H29.4582V53.6123V50.6525H30.9584H32.4586V53.6123ZM58.8944 58.3156V58.9238H40.0001H21.1058V58.3156V57.7075H40.0001H58.8944V58.3156Z" fill="#181818"/>
<path d="M27.131 35.3263C26.9931 35.4073 26.8309 35.5533 26.7904 35.6425C26.7336 35.7398 26.7012 36.421 26.7012 37.3941V38.9916L26.9769 39.2673L27.2526 39.543H28.8663C31.1288 39.543 31.0801 39.5917 31.0801 37.3373C31.0801 36.0074 31.0639 35.829 30.926 35.6182C30.6503 35.1965 30.5206 35.1722 28.8906 35.1641C27.5445 35.1641 27.3661 35.1803 27.131 35.3263ZM29.9448 37.3535V38.4077H28.8906H27.8365V37.3535V36.2994H28.8906H29.9448V37.3535Z" fill="#181818"/>
<path d="M27.431 40.8161C26.7417 41.035 26.7012 41.1648 26.7012 43.0299C26.7012 45.2599 26.685 45.2518 29.069 45.2031L30.5125 45.1788L30.772 44.9112L31.0396 44.6517V42.9974C31.0396 41.4567 31.0315 41.3351 30.8774 41.1648C30.5692 40.8161 30.2773 40.7593 28.8744 40.7674C28.1446 40.7674 27.4959 40.7917 27.431 40.8161ZM29.9448 42.9893V44.0841H28.8906H27.8365V42.9893V41.8946H28.8906H29.9448V42.9893Z" fill="#181818"/>
<path d="M38.6456 42.5353C38.5077 42.6245 38.3456 42.7704 38.305 42.8596C38.2483 42.9569 38.2158 43.6381 38.2158 44.6031C38.2158 46.1763 38.2158 46.1844 38.4267 46.4276C38.7105 46.7763 39.0511 46.8412 40.4458 46.8331C41.8406 46.8331 42.1406 46.7601 42.4082 46.3628C42.5866 46.1033 42.5948 46.0141 42.5948 44.5544V43.0299L42.319 42.7218L42.0433 42.4217L40.4702 42.3974C39.0267 42.3812 38.8808 42.3893 38.6456 42.5353ZM41.4595 44.6112V45.7059H40.4053H39.3511V44.6112V43.5165H40.4053H41.4595V44.6112Z" fill="#181818"/>
<path d="M45.2145 42.5353C45.0766 42.6245 44.9144 42.7704 44.8739 42.8596C44.8171 42.9569 44.7847 43.6381 44.7847 44.6031C44.7847 46.1763 44.7847 46.1844 44.9955 46.4276C45.2793 46.7763 45.6199 46.8412 47.0147 46.8331C48.4176 46.8331 48.7095 46.7601 48.9852 46.3547C49.1717 46.0789 49.1717 46.0384 49.1474 44.5139L49.1231 42.9488L48.8555 42.6893L48.596 42.4217L47.0309 42.3974C45.5956 42.3812 45.4496 42.3893 45.2145 42.5353ZM48.0283 44.6112V45.7059H46.9741H45.9199V44.6112V43.5165H46.9741H48.0283V44.6112Z" fill="#181818"/>
<path d="M51.7828 42.5353C51.3368 42.811 51.3125 42.9245 51.3125 44.5707C51.3125 45.8762 51.3287 46.1033 51.4585 46.2979C51.7585 46.752 51.9207 46.8007 53.3803 46.825C54.9454 46.8574 55.2616 46.7926 55.5536 46.3547C55.7401 46.079 55.7401 46.0384 55.7158 44.5139L55.6914 42.9488L55.4238 42.6893L55.1643 42.4217L53.5993 42.3974C52.164 42.3812 52.018 42.3893 51.7828 42.5353ZM54.5967 44.6112V45.7141L53.5263 45.6897L52.4478 45.6654L52.4235 44.5869L52.3991 43.5165H53.502H54.5967V44.6112Z" fill="#181818"/>
<path d="M38.4916 49.7929L38.2159 50.0686V51.6824C38.2159 53.9448 38.1753 53.8962 40.4053 53.8962C42.611 53.8962 42.5948 53.9124 42.5948 51.7067C42.5948 49.4767 42.6435 49.5172 40.381 49.5172H38.7673L38.4916 49.7929ZM41.4595 51.7067V52.7609H40.4053H39.3511V51.7067V50.6525H40.4053H41.4595V51.7067Z" fill="#181818"/>
<path d="M45.0605 49.7929L44.7848 50.0686V51.6824C44.7848 53.9448 44.7361 53.8962 46.9904 53.8962C48.596 53.888 48.7339 53.8637 49.0096 53.442C49.1475 53.2312 49.1637 53.0528 49.1637 51.7229C49.1637 49.4686 49.2123 49.5172 46.9499 49.5172H45.3362L45.0605 49.7929ZM48.0284 51.7067V52.7609H46.9742H45.92V51.7067V50.6525H46.9742H48.0284V51.7067Z" fill="#181818"/>
<path d="M51.637 49.7848C51.3045 50.1173 51.2397 50.5227 51.2883 52.104C51.3126 53.1014 51.337 53.2717 51.4829 53.4664C51.7749 53.8637 51.9289 53.8961 53.5426 53.888C55.1726 53.888 55.3023 53.8637 55.578 53.442C55.7159 53.2312 55.7321 53.0528 55.7321 51.7229C55.7321 49.4767 55.7727 49.5172 53.494 49.5172H51.9046L51.637 49.7848ZM54.5968 51.7067V52.7609H53.5021H52.4074V51.7067V50.6525H53.5021H54.5968V51.7067Z" fill="#181818"/>
</svg>
