<svg width="80" height="80" viewBox="0 0 80 80" fill="none" xmlns="http://www.w3.org/2000/svg">
<circle cx="40" cy="40" r="40" fill="#DC040C"/>
<path d="M40.2621 19.8005L40.0817 19.9728V25.4607C40.0817 28.4876 40.0653 30.9568 40.0407 30.9568C40.016 30.9568 37.4813 30.3251 34.4051 29.5623C28.3594 28.0447 28.4989 28.0693 28.2774 28.5451C28.2117 28.6845 28.1871 29.7919 28.1871 32.138C28.1871 35.4439 28.1953 35.5341 28.3594 35.7474C28.5727 36.0181 29.0074 36.0427 29.2535 35.7966C29.4094 35.6408 29.4176 35.5259 29.4176 32.6384C29.4176 29.8412 29.4258 29.6443 29.5653 29.6443C29.6391 29.6443 34.0934 30.7517 39.4664 32.0888L49.2282 34.5333V36.6251V38.7087L47.8992 38.7333L46.5703 38.7498L46.5457 37.2732C46.5211 35.8705 46.5129 35.7884 46.3324 35.6162L46.1438 35.4275H43.2891C40.5985 35.4275 40.418 35.4357 40.2539 35.5833C40.0981 35.7228 40.0817 35.8376 40.0653 37.224L40.0407 38.7087H39.3434H38.6461L38.6215 37.224C38.6051 35.8376 38.5887 35.7228 38.4328 35.5833C38.2688 35.4357 38.0883 35.4275 35.3895 35.4275H32.5184L32.3215 35.6572C32.1328 35.8787 32.1246 35.9279 32.1246 37.3224V38.7498L30.7957 38.7333L29.4586 38.7087L29.434 38.3396C29.4012 37.7244 29.3438 37.6013 29.0731 37.4865C28.5481 37.265 28.1871 37.6013 28.1871 38.3068V38.7498H26.3906H24.586L24.4219 38.963C24.2004 39.2501 24.2086 39.4306 24.4465 39.7095L24.6434 39.9392H39.9996H55.3559L55.5528 39.7095C55.7907 39.4306 55.7989 39.2501 55.5774 38.963L55.4133 38.7498H52.9524H50.4996V36.338C50.4996 34.033 50.4914 33.9263 50.3274 33.7212C50.2371 33.5982 50.0157 33.4669 49.8188 33.4177C49.6301 33.3685 49.4086 33.3111 49.3348 33.2865C49.1953 33.2455 49.1871 32.8599 49.1871 26.724C49.1871 19.8087 49.1871 19.8334 48.818 19.6857C48.7442 19.6611 48.0223 19.6365 47.2266 19.6365C45.8731 19.6365 45.75 19.6529 45.5449 19.8087L45.3317 19.9728V25.1818C45.3317 30.2759 45.3317 30.3826 45.4957 30.5466C45.7008 30.7517 46.0782 30.7599 46.3242 30.5548L46.5211 30.399L46.5457 26.9455L46.5703 23.4919H47.2594H47.9567V28.2087C47.9567 30.8009 47.9403 32.9255 47.9157 32.9255C47.8746 32.9255 44.9051 32.1873 44.2489 32.015L43.9371 31.933V26.1169C43.9371 22.2943 43.9043 20.2271 43.8551 20.0794C43.691 19.6611 43.6008 19.6447 41.9602 19.6365C40.541 19.6365 40.4262 19.6447 40.2621 19.8005ZM42.7067 21.5642V22.2615H42.0094H41.3121V21.5642V20.8669H42.0094H42.7067V21.5642ZM47.9567 21.5642V22.2615H47.2594H46.5621V21.5642V20.8669H47.2594H47.9567V21.5642ZM42.7067 27.5525C42.7067 29.7837 42.6821 31.613 42.6492 31.613C42.6082 31.613 42.4524 31.5802 42.2965 31.5392C42.1407 31.49 41.8535 31.4162 41.6649 31.3669L41.3121 31.2767V27.3884V23.4919H42.0094H42.7067V27.5525ZM37.3746 37.6833V38.7498L35.3895 38.7333L33.3961 38.7087L33.3715 37.7736C33.3633 37.2568 33.3715 36.781 33.3879 36.7236C33.4207 36.6416 33.8555 36.6169 35.4059 36.6169H37.3746V37.6833ZM45.2907 37.6833V38.7087L43.3055 38.7333L41.3121 38.7498V37.6833V36.6169L43.3055 36.6333L45.2907 36.658V37.6833Z" fill="white"/>
<path d="M19.1723 42.9826C19.0082 43.1959 19 43.2943 19 46.19V49.176L19.2051 49.3728C19.4594 49.6353 19.7711 49.6353 20.0254 49.3728L20.2305 49.176V46.19C20.2305 43.2943 20.2223 43.1959 20.0582 42.9826C19.9352 42.8267 19.8121 42.7693 19.6152 42.7693C19.4184 42.7693 19.2953 42.8267 19.1723 42.9826Z" fill="white"/>
<path d="M21.8875 42.958C21.707 43.1467 21.707 43.1795 21.707 46.1818V49.2252L21.8957 49.3974C22.1336 49.6189 22.4453 49.6271 22.6996 49.4221C22.8965 49.2662 22.8965 49.2416 22.9375 47.3549L22.9785 45.4435L24.3238 47.3877C25.0621 48.4623 25.7266 49.3728 25.8086 49.4139C26.0793 49.5615 26.4238 49.5041 26.6207 49.299L26.8094 49.0939L26.8012 46.1572C26.793 43.4584 26.7766 43.2041 26.6371 43.0154C26.432 42.7283 25.9891 42.6955 25.743 42.9498C25.5707 43.1385 25.5625 43.2123 25.5461 45.058L25.5215 46.9693L24.1105 44.9185C23.3313 43.7947 22.634 42.8514 22.5602 42.8185C22.3059 42.7201 22.0598 42.7693 21.8875 42.958Z" fill="white"/>
<path d="M34.1758 42.9333C34.0199 43.0892 34.0117 43.204 34.0117 45.4107C34.0117 47.6665 34.0199 47.7404 34.2086 48.1423C34.4301 48.6181 34.9387 49.1103 35.4801 49.3646C36.0543 49.6271 37.1043 49.6025 37.6703 49.3154C38.2445 49.0118 38.5727 48.7247 38.8352 48.2736L39.0566 47.8962L39.0813 45.5255C39.1059 43.1712 39.1059 43.1548 38.9254 42.9661C38.6711 42.6872 38.2609 42.7036 38.0395 42.9825C37.8754 43.1876 37.8672 43.3025 37.8672 45.345C37.8672 47.7896 37.8508 47.8552 37.1945 48.1751C36.7434 48.3884 36.3168 48.3966 35.9148 48.1915C35.2668 47.8634 35.2914 47.9454 35.2422 45.3779C35.2012 43.0892 35.2012 43.081 35.0043 42.9251C34.7582 42.72 34.3809 42.7282 34.1758 42.9333Z" fill="white"/>
<path d="M41.6077 42.8923C40.8448 43.1794 40.328 43.8931 40.328 44.6478C40.328 45.058 40.5577 45.5994 40.853 45.8783C40.9514 45.9767 41.5339 46.2556 42.1327 46.5017C42.7315 46.7478 43.3139 47.0267 43.4206 47.1251C43.6667 47.363 43.6749 47.765 43.4288 48.0029C42.871 48.5197 41.9686 48.4376 41.1565 47.8142C40.7299 47.4779 40.4756 47.4533 40.2049 47.7322C39.762 48.1669 40.1065 48.7248 41.1319 49.2251C41.7143 49.5123 41.8046 49.5369 42.4936 49.5369C43.076 49.5369 43.3221 49.4958 43.6092 49.3646C44.3639 49.0119 44.8315 48.3228 44.8397 47.5435C44.8397 46.6083 44.2819 46.0341 42.7971 45.4435C41.7553 45.0333 41.5585 44.9103 41.5585 44.656C41.5585 44.2294 41.903 43.9998 42.5346 43.9998C42.8381 43.9998 43.0678 44.0736 43.478 44.2869C44.126 44.6314 44.2081 44.6396 44.4706 44.3689C44.9135 43.9341 44.6428 43.4666 43.7323 43.0482C43.1253 42.7693 42.1245 42.6955 41.6077 42.8923Z" fill="white"/>
<path d="M45.9142 42.9825C45.701 43.2532 45.6928 43.5157 45.8978 43.7618C46.0291 43.9259 46.1439 43.9587 46.6771 43.9833L47.3006 44.0161V46.6247V49.2415L47.5139 49.4056C47.7846 49.6189 48.0471 49.6271 48.2932 49.422L48.49 49.2661L48.5146 46.6329L48.5392 43.9997H49.0725C49.5646 43.9997 49.6303 43.9751 49.86 43.7536C50.0568 43.5485 50.0978 43.4583 50.0568 43.2778C49.942 42.7939 49.8353 42.7692 47.8748 42.7692H46.0783L45.9142 42.9825Z" fill="white"/>
<path d="M51.2547 42.958C51.0742 43.1466 51.0742 43.1794 51.0742 46.19V49.2416L51.2875 49.4056C51.5582 49.6189 51.8207 49.6271 52.0668 49.422C52.2473 49.2744 52.2637 49.1923 52.3047 48.2408L52.3457 47.2154L53.166 48.1587C54.1586 49.299 54.4621 49.5779 54.7164 49.5779C55.0281 49.5779 55.2906 49.3154 55.2906 48.9873C55.2906 48.7494 55.1758 48.5689 54.5195 47.8224C54.093 47.3384 53.732 46.9119 53.7156 46.8791C53.7074 46.8462 53.8305 46.7724 53.9945 46.715C54.3883 46.5755 54.8969 46.0998 55.1184 45.6896C55.3562 45.2302 55.3562 44.4099 55.1184 43.9587C54.8887 43.524 54.4867 43.1466 54.0273 42.9416C53.7156 42.8021 53.4859 42.7693 52.5426 42.7693C51.4844 42.7693 51.4187 42.7775 51.2547 42.958ZM53.7156 44.1638C54.0355 44.4099 54.1504 44.7626 54.0273 45.0662C53.8469 45.5091 53.5844 45.6404 52.9117 45.6404H52.3047V44.8201V43.9998H52.9117C53.3875 43.9998 53.5598 44.0326 53.7156 44.1638Z" fill="white"/>
<path d="M56.4062 42.9333C56.0945 43.245 56.1847 43.5157 57.0871 44.8939L57.9238 46.1735L57.9648 47.7157C58.0058 49.2169 58.014 49.2661 58.2027 49.422C58.4488 49.6271 58.7113 49.6189 58.982 49.4056L59.1953 49.2415V47.7896V46.3376L60.0976 44.9431C60.598 44.1802 61 43.4665 61 43.3599C61 43.122 60.6554 42.7692 60.4257 42.7692C60.1058 42.7692 59.95 42.9251 59.3019 43.9177C58.9492 44.4591 58.6375 44.9021 58.6128 44.9021C58.58 44.9021 58.2601 44.4427 57.8992 43.8849C57.53 43.3271 57.1773 42.8513 57.1035 42.8185C56.8492 42.72 56.5703 42.7692 56.4062 42.9333Z" fill="white"/>
<path d="M28.3105 43.0565L28.1055 43.2533V46.0916C28.1055 49.176 28.1301 49.3565 28.5566 49.4631C28.6715 49.4877 29.2539 49.4959 29.8527 49.4795C31.0996 49.4385 31.4605 49.3236 32.0758 48.7494C33.3883 47.5436 33.4211 44.8775 32.1496 43.6061C31.5344 42.9908 31.075 42.8514 29.6559 42.8514C28.5484 42.8514 28.4992 42.8596 28.3105 43.0565ZM30.9766 44.2459C31.6656 44.5986 32.0266 45.7881 31.7723 46.8381C31.518 47.8635 31.0012 48.2572 29.9348 48.2654H29.3359V46.1736V44.0818H29.9922C30.4926 44.0818 30.7305 44.1229 30.9766 44.2459Z" fill="white"/>
<path d="M43.3387 51.3334C42.8465 51.5138 42.4117 51.842 42.1492 52.2193C41.7145 52.8591 41.6816 53.0642 41.6816 55.074C41.6816 56.6326 41.7063 56.9853 41.8293 57.3381C42.0344 57.9287 42.4527 58.3799 43.0762 58.6916C43.552 58.9213 43.6586 58.9459 44.2 58.9131C45.1926 58.8638 45.9309 58.3634 46.3492 57.4611C46.5133 57.1084 46.5215 56.9525 46.5215 55.074C46.5215 52.8345 46.4887 52.6787 45.9063 52.006C45.332 51.358 44.1262 51.0381 43.3387 51.3334ZM44.6758 52.5967C44.8563 52.6951 45.0367 52.8838 45.1516 53.1052C45.3238 53.4416 45.332 53.5646 45.332 55.074C45.332 56.4767 45.3074 56.7146 45.168 57.0181C44.7824 57.8795 43.5602 57.9287 43.0762 57.1166C42.9285 56.8623 42.9121 56.69 42.9121 55.156C42.9121 54.2291 42.9367 53.3759 42.9695 53.2611C43.0434 53.0232 43.4043 52.6295 43.6504 52.5228C43.9293 52.408 44.3805 52.4408 44.6758 52.5967Z" fill="white"/>
<path d="M36.5135 51.4154C36.1526 51.5795 35.9803 51.801 35.2667 53.0233C33.4538 56.1322 33.2979 56.5014 33.6753 56.8131C33.8393 56.9444 34.028 56.9608 35.201 56.9608H36.5382L36.571 57.7072C36.5956 58.4045 36.612 58.4619 36.8253 58.6506C37.1042 58.8885 37.2846 58.8967 37.5635 58.6834C37.7604 58.5276 37.7768 58.4619 37.8014 57.7565L37.826 57.01L38.1132 56.9526C38.4495 56.8787 38.6053 56.6901 38.6053 56.3373C38.6053 56.042 38.3018 55.7303 38.0229 55.7303C37.8753 55.7303 37.8671 55.6319 37.8671 54.0651C37.8671 53.1545 37.826 52.2768 37.785 52.1127C37.621 51.5303 37.0057 51.194 36.5135 51.4154ZM36.612 55.7057C36.5874 55.7221 36.2593 55.7303 35.8655 55.7139L35.1518 55.6893L35.8737 54.426L36.5956 53.1545L36.6202 54.4178C36.6284 55.1069 36.6284 55.6893 36.612 55.7057Z" fill="white"/>
<path d="M39.6065 57.9451C39.344 58.1912 39.3604 58.6177 39.6393 58.8392C40.0084 59.1263 40.4022 59.0197 40.5662 58.5931C40.6565 58.347 40.5006 57.9123 40.2873 57.8302C40.033 57.74 39.7869 57.781 39.6065 57.9451Z" fill="white"/>
</svg>
