<svg width="93" height="75" viewBox="0 0 93 75" fill="none" xmlns="http://www.w3.org/2000/svg">
<path d="M40.1058 8.11611C39.8927 8.21558 39.509 8.75555 39.1538 9.39498C38.017 11.5264 37.136 12.4075 35.175 13.3879C34.0809 13.9279 33.7114 14.3116 33.7114 14.9084C33.7114 15.5762 33.8535 15.7325 35.175 16.4146C36.937 17.3382 38.1591 18.5319 38.9548 20.1091C39.6227 21.4591 39.9921 21.8569 40.5747 21.8569C41.2568 21.8569 41.4842 21.6296 42.1946 20.2654C43.0757 18.5461 44.1556 17.4377 45.7755 16.6135C47.2533 15.8462 47.4949 15.6189 47.4949 14.9226C47.4949 14.2405 47.2391 13.9847 45.7045 13.2032C44.1982 12.4359 43.0472 11.2565 42.2657 9.7076C41.9531 9.08237 41.5836 8.45714 41.4415 8.32925C41.0579 7.98822 40.5179 7.90296 40.1058 8.11611ZM42.3936 13.459C42.8767 13.9137 43.4735 14.411 43.7435 14.5531C44.3403 14.8799 44.3403 14.9652 43.8146 15.2494C43.1609 15.5762 41.7684 16.9404 41.1715 17.8072C40.8731 18.2334 40.6032 18.5887 40.5889 18.5887C40.5605 18.5887 40.4468 18.404 40.3332 18.1766C40.0063 17.5514 38.7133 16.1872 37.8038 15.5194L36.9939 14.9226L37.9886 14.1837C38.9406 13.4732 40.0916 12.2227 40.4184 11.5264C40.5747 11.2138 40.5889 11.228 41.0579 11.9101C41.3136 12.2938 41.9247 12.9901 42.3936 13.459Z" fill="#DC040C"/>
<path d="M54.7135 12.0523C54.5856 12.1376 54.202 12.7202 53.8609 13.3454C53.122 14.738 52.0989 15.7469 50.6353 16.5142C49.4843 17.1252 49.2285 17.4663 49.4275 18.191C49.5412 18.5888 49.7543 18.7593 50.6922 19.2709C52.1558 20.0524 53.1646 21.0613 53.8893 22.4539C54.4862 23.5907 54.7561 23.8464 55.3387 23.8464C55.8929 23.8464 56.2624 23.4628 56.8876 22.2834C57.5839 20.9334 58.5217 20.0098 59.9853 19.2425C61.0226 18.7025 61.2784 18.4183 61.2784 17.8499C61.2784 17.31 60.8947 16.9121 59.8716 16.4005C58.4791 15.69 57.5839 14.8232 56.8876 13.4733C56.5608 12.8623 56.1487 12.2513 55.9782 12.1234C55.6371 11.8818 55.0688 11.8534 54.7135 12.0523ZM56.8166 16.8979C57.2002 17.2531 57.6407 17.6226 57.797 17.7078C58.0812 17.8783 58.0812 17.8783 57.797 18.0489C57.3423 18.3188 56.1487 19.4698 55.7366 20.0382L55.3387 20.5782L54.7419 19.8109C54.4151 19.3846 53.8041 18.7736 53.3778 18.4467L52.6105 17.8499L53.1504 17.4663C53.7757 16.9973 54.4719 16.3153 54.9693 15.6616L55.3387 15.1785L55.7366 15.7185C55.9498 16.0027 56.4329 16.5426 56.8166 16.8979Z" fill="#DC040C"/>
<path d="M11.0183 14.0133C10.8335 14.0417 10.5635 14.2264 10.4072 14.4253C10.123 14.7806 10.123 14.9653 10.123 26.9299V39.0792L10.5209 39.4629C11.1035 40.0455 16.148 42.8875 16.5885 42.8875C16.7874 42.8875 17.0858 42.8306 17.2279 42.7454C17.4411 42.6317 17.8389 42.8022 19.2741 43.6406L21.0503 44.6637L20.9651 45.6726C20.8656 46.8946 21.0077 47.3777 21.9313 48.9408C22.7271 50.2765 23.5086 51.0154 24.3896 51.2712C24.887 51.4133 25.0007 51.4986 24.9438 51.7117C24.8159 52.1948 25.1854 53.3032 25.8532 54.4684C27.0184 56.5146 27.871 57.1398 29.4767 57.154L30.4288 57.1683L30.514 57.6798C30.5709 57.964 30.9687 58.8308 31.4093 59.5981C32.3045 61.1328 33.015 61.8006 34.0381 62.0848C34.6207 62.2411 35.8427 62.1985 36.2832 62.0138C36.4679 61.9285 36.5248 62.028 36.5958 62.4259C36.6953 63.0369 37.8321 65.0689 38.4573 65.7367C39.3241 66.6888 40.6598 67.0867 41.896 66.774C42.6918 66.5751 44.6527 65.4667 45.3916 64.7989L45.9174 64.33L47.9068 65.481C50.1945 66.8025 50.9761 67.1009 51.8997 66.973C52.6528 66.8593 53.6901 66.3477 54.1306 65.8788C54.5569 65.4241 55.8216 63.0937 55.9353 62.5395L56.0347 62.099L56.7737 62.4401C58.1804 63.0937 60.0419 62.7669 61.0082 61.7012C61.5339 61.1186 62.5428 59.2997 62.8128 58.4329L63.0259 57.694L63.8217 57.6372C65.3421 57.5235 66.2089 56.8414 67.3031 54.9089C67.7152 54.17 68.0278 53.3885 68.1272 52.8627C68.2836 52.0243 68.2978 52.0101 68.8093 51.9249C69.4203 51.8254 70.344 51.2002 70.8413 50.5323C71.0402 50.2765 71.4665 49.5234 71.8076 48.8555C72.3475 47.804 72.4328 47.534 72.4328 46.7241C72.4328 46.0704 72.3475 45.6299 72.1344 45.2036L71.836 44.621L73.6122 43.5979C75.1753 42.6885 75.4168 42.5891 75.7295 42.7311C76.3689 43.0296 76.8094 42.8875 78.6567 41.8075C80.1913 40.9265 80.5466 40.7702 80.6745 40.9407C81.1292 41.566 81.8965 41.6086 82.4649 41.0544L82.877 40.6423V27.6972V14.7664L82.5501 14.3969C81.8965 13.6296 81.8965 13.6296 73.4133 18.5177C69.1219 20.9902 65.4842 23.1359 65.3421 23.278C65.2 23.4201 65.0721 23.7469 65.0579 23.9885C65.0437 24.4148 64.93 24.5 62.287 26.0063C60.7666 26.8873 59.2604 27.683 58.9477 27.7967C58.1946 28.0525 56.6742 28.0383 55.9211 27.7683C55.5942 27.6546 54.0596 26.8304 52.5107 25.9352C49.0293 23.9174 48.6315 23.7753 46.5711 23.7896C44.6101 23.7896 44.5675 23.818 40.0914 26.3899C37.6331 27.8109 36.4963 28.3935 36.1837 28.3935C35.2601 28.3935 33.8391 27.7825 31.0256 26.1484C28.2263 24.5285 28.1126 24.4432 27.9563 23.9032C27.7716 23.2496 27.6863 23.1785 23.9065 21.0187C20.9651 19.3277 20.7093 19.2566 20.1835 19.8961C19.7004 20.4645 19.9136 21.1892 20.6951 21.6439C20.9225 21.7718 20.6809 22.2265 18.6489 25.7647C15.8496 30.596 15.878 30.5392 16.1622 31.0934C16.2901 31.3349 16.5459 31.5623 16.759 31.6049C17.5832 31.8181 17.7111 31.6618 20.2688 27.2283C21.6045 24.9121 22.7271 22.9796 22.7697 22.937C22.9118 22.8091 25.3985 24.3579 25.3559 24.5569C25.3133 24.7132 17.981 37.5162 16.7164 39.6476L16.2332 40.4434L14.2439 39.2924L12.2545 38.1414V27.4415V16.7557L14.2155 17.8783C15.2954 18.5177 16.3327 19.0151 16.5316 19.0151C17.4126 19.0151 17.8958 17.9636 17.3132 17.3241C17.029 17.0115 12.084 14.1553 11.6293 14.0417C11.4588 13.999 11.1888 13.9848 11.0183 14.0133ZM80.7455 26.7878V36.8341L76.4115 29.3172C74.0243 25.1963 72.0918 21.786 72.1202 21.7576C72.177 21.7149 80.6318 16.7699 80.7171 16.7557C80.7313 16.7415 80.7455 21.2602 80.7455 26.7878ZM74.8485 30.8802C77.321 35.1716 79.3814 38.7382 79.4098 38.795C79.4666 38.8945 77.0368 40.3297 76.8094 40.3297C76.7383 40.3297 76.2979 39.6761 75.8431 38.8661C74.6069 36.7062 74.4222 36.4931 73.8396 36.4931C73.257 36.4931 72.788 36.9052 72.788 37.4451C72.788 37.6583 73.1433 38.454 73.5838 39.2356C74.0243 40.0029 74.3511 40.6565 74.3227 40.6849C74.2374 40.7702 70.1024 43.1717 70.0313 43.1717C70.0029 43.1717 68.1557 42.1201 65.9247 40.827C63.097 39.1929 61.7329 38.4824 61.4345 38.4824C60.5677 38.4824 60.1129 39.5055 60.6813 40.1592C60.8092 40.3013 62.9549 41.6086 65.4416 43.0296C70.0313 45.6726 70.3724 45.9141 70.3724 46.7099C70.3724 47.1362 69.2356 49.2676 68.8377 49.5802C68.0846 50.1628 67.772 50.035 62.8838 47.2214C60.3687 45.772 58.1804 44.5926 58.0099 44.5926C57.5836 44.5926 57.0152 45.2179 57.0152 45.701C57.0152 45.9426 57.1431 46.2267 57.342 46.3973C57.5126 46.5536 59.1893 47.5625 61.065 48.6424C65.6405 51.257 65.7684 51.3565 65.9532 51.868C66.1521 52.4364 66.0384 52.8201 65.3706 53.9995C64.7169 55.1078 64.248 55.5341 63.6654 55.5341C63.1538 55.5341 63.4522 55.6904 58.7062 52.9622C56.5463 51.7117 54.6422 50.7028 54.4717 50.7028C54.0596 50.7028 53.4628 51.3138 53.4628 51.7543C53.4628 51.9533 53.6049 52.2659 53.7896 52.4506C53.9601 52.6496 55.5232 53.6158 57.271 54.6105C61.2781 56.8983 61.2924 56.9267 60.2693 58.9018C59.573 60.2518 59.1609 60.6496 58.493 60.6496C57.9104 60.6496 57.7541 60.5786 54.1022 58.4613C52.5391 57.5519 51.1182 56.813 50.9334 56.813C50.4929 56.813 49.9103 57.424 49.9103 57.8787C49.9103 58.3903 50.3224 58.7455 52.0134 59.7118C52.8091 60.1665 53.5622 60.6781 53.6759 60.8344C54.0454 61.3743 53.9317 62.0422 53.2354 63.3069C52.7097 64.2873 52.4823 64.5573 52.0844 64.7278C51.8002 64.8415 51.4308 64.8984 51.2603 64.8557C51.0755 64.8131 50.0382 64.2589 48.9299 63.6195L46.9263 62.4685V61.488C46.9263 58.9445 45.1785 57.0262 42.6776 56.8414L41.7113 56.7704L41.6119 55.932C41.3703 53.63 39.6367 51.9391 37.2921 51.7401L36.34 51.6691L36.3116 50.8733C36.2406 49.3813 35.3169 47.9461 33.967 47.2214C33.5549 47.0083 33.1997 46.8093 33.1713 46.7951C33.1571 46.7809 33.2423 46.3546 33.3702 45.8573C34.1233 42.9159 31.9776 40.145 28.951 40.145C27.7573 40.145 27.4305 40.2729 24.6596 41.8644C23.5513 42.5038 22.5992 43.0296 22.5566 43.0296C22.5139 43.0296 21.5903 42.518 20.5104 41.8928L18.5352 40.7418L22.656 33.6085C24.9154 29.6866 26.8195 26.4326 26.8763 26.3757C26.919 26.3189 27.8568 26.7878 28.951 27.4273C30.0451 28.0525 31.5656 28.9051 32.3329 29.3172C33.5407 29.9566 33.697 30.0845 33.4981 30.2408C33.1002 30.5676 32.8586 31.1928 32.8586 31.8891C32.8586 33.509 34.8622 35.7115 36.9368 36.351C38.8694 36.9478 40.674 36.6778 42.7202 35.4984C43.2602 35.1858 43.7859 34.93 43.8996 34.93C44.0133 34.93 44.3685 35.1574 44.6954 35.4273C45.0222 35.7115 45.6332 36.1094 46.0737 36.3226C46.77 36.6636 47.0116 36.7062 48.3473 36.7062C49.683 36.7062 49.9246 36.6636 50.6919 36.3083C51.1608 36.081 51.6866 35.7826 51.8429 35.6263L52.1555 35.3421L54.358 36.6067C55.5658 37.3172 56.6884 37.9283 56.8447 37.9709C57.2568 38.113 57.8252 37.7862 58.0241 37.303C58.3225 36.5925 58.0099 36.2657 55.6369 34.8874L53.477 33.6369L53.7043 32.9975C53.9743 32.2017 53.7754 31.6333 53.1644 31.3634C52.5107 31.1076 52.1129 31.3634 51.6724 32.3296C50.9903 33.8927 49.9388 34.6458 48.4183 34.6458C47.4094 34.6458 46.6279 34.3332 45.8321 33.5943C44.6101 32.5001 43.8428 32.5143 41.6119 33.6511C40.0346 34.4611 39.8925 34.5037 38.9262 34.5037C37.7184 34.5037 36.7379 34.1058 35.9422 33.3101C35.3311 32.7133 34.9191 31.9602 35.0896 31.7896C35.4022 31.477 44.5391 26.3047 45.1501 26.0915C46.0595 25.7789 47.3668 25.7789 48.2762 26.0915C48.6741 26.2336 50.223 27.0578 51.7434 27.9388C54.9974 29.8287 55.7506 30.1271 57.4415 30.1271C59.1751 30.1271 60.0703 29.7861 63.2675 27.9104C64.788 27.0152 66.081 26.3331 66.1379 26.3899C66.1805 26.4326 67.161 28.1093 68.312 30.0987C69.4487 32.0881 70.5287 33.8358 70.685 33.9637C71.296 34.5037 72.3617 34.0206 72.3617 33.2248C72.3617 33.0117 71.3955 31.1786 69.9461 28.6777C68.4256 26.0205 67.5873 24.4432 67.6725 24.3579C67.9709 24.0595 70.1592 22.8659 70.2445 22.9654C70.3013 23.0222 72.376 26.5747 74.8485 30.8802ZM30.3435 42.6885C30.9403 43.0864 31.4377 43.9674 31.4377 44.6637C31.4377 45.2179 30.9972 46.1415 30.5709 46.5252C30.3861 46.6815 29.2636 47.3777 28.0842 48.0456C25.1001 49.765 24.7875 49.7366 23.5797 47.5483C22.9545 46.4399 22.8976 45.772 23.3807 45.2463C23.7076 44.8768 27.6721 42.5038 28.3115 42.3049C28.8657 42.1201 29.7467 42.2906 30.3435 42.6885ZM32.475 48.884C34.0523 49.3529 34.6917 51.3138 33.7254 52.678C33.2991 53.2606 30.102 55.1078 29.4909 55.1078C28.8231 55.1078 28.2973 54.5679 27.601 53.2037C27.0042 52.0243 26.99 51.9817 27.189 51.4559C27.3737 50.987 27.6152 50.7881 29.022 49.9497C31.1535 48.6992 31.4945 48.5856 32.475 48.884ZM38.1163 54.1416C39.5372 54.8663 39.9351 56.6141 38.9688 57.8503C38.571 58.3477 35.5585 60.0812 35.0754 60.0812C34.3791 60.0812 33.9244 59.7118 33.2849 58.6319C32.546 57.3672 32.4181 56.6141 32.8444 56.0883C33.1144 55.7473 35.4448 54.3121 36.2832 53.9853C36.8516 53.7579 37.4484 53.8148 38.1163 54.1416ZM43.516 59.2571C44.9511 59.9818 45.2495 62.099 44.0701 63.1506C43.4875 63.6763 41.4698 64.7705 41.1003 64.7705C40.4751 64.7705 39.9209 64.2873 39.2957 63.1932C38.5425 61.8575 38.4715 61.5591 38.7841 60.948C38.983 60.5786 39.3667 60.266 40.3898 59.6976C41.9387 58.8308 42.5071 58.7597 43.516 59.2571Z" fill="#DC040C"/>
</svg>
