<svg width="81" height="75" viewBox="0 0 81 75" fill="none" xmlns="http://www.w3.org/2000/svg">
<path d="M39.0353 8.16166C35.9222 8.99838 33.9904 12.2345 34.7779 15.2615C35.0117 16.1474 35.4669 17.058 35.9591 17.624C36.1806 17.8701 36.3283 18.0793 36.3036 18.0916C36.279 18.1162 35.9345 18.227 35.5285 18.3623C33.3997 19.0637 31.3202 21.0324 30.3851 23.235C29.8806 24.4285 29.6714 25.6959 29.6714 27.4801C29.6714 28.9444 29.6837 29.0305 29.979 29.3135L30.2743 29.6212H40.4996H50.7248L51.0201 29.3135C51.3155 29.0305 51.3278 28.9444 51.3278 27.4801C51.3278 25.7452 51.1186 24.4901 50.6633 23.3457C49.7404 21.0693 47.6609 19.076 45.4707 18.3623C45.0646 18.227 44.7201 18.1162 44.6955 18.0916C44.6709 18.0793 44.8185 17.8701 45.04 17.624C45.8398 16.7135 46.4059 15.1508 46.4059 13.8711C46.4059 10.0935 42.6529 7.18958 39.0353 8.16166ZM42.1607 10.315C42.9359 10.6841 43.6742 11.4224 44.068 12.2099C44.4986 13.0836 44.4986 14.634 44.068 15.5322C43.6865 16.3197 42.9482 17.058 42.1607 17.4394C41.2625 17.8701 39.7121 17.8701 38.8384 17.4394C38.0509 17.058 37.3126 16.3197 36.9312 15.5322C36.5005 14.6586 36.5005 13.1082 36.9312 12.2099C37.448 11.1517 38.4447 10.3396 39.5767 10.0443C40.2412 9.87202 41.4963 10.0074 42.1607 10.315ZM44.6955 20.1588C45.8644 20.6018 46.5166 21.0201 47.3164 21.8199C48.5961 23.0996 49.2236 24.5393 49.3221 26.4465L49.3959 27.6524H40.5119H31.6401V26.8772C31.6401 23.9856 33.1782 21.5738 35.7745 20.3803C36.9312 19.8512 37.4849 19.7897 40.8072 19.8266C43.7603 19.8512 43.9203 19.8635 44.6955 20.1588Z" fill="#DC040C"/>
<path d="M11.5712 16.1228C10.6607 16.5043 10.1685 16.8734 9.72549 17.4763C9.31944 18.0424 8.99951 18.9898 8.99951 19.642C8.99951 19.8881 9.77471 24.4901 10.7222 29.8672C11.9157 36.6348 12.5433 39.9325 12.7648 40.5601C13.0109 41.2491 13.7861 42.5165 15.9148 45.7034L18.7203 49.9363V51.5974V53.2463H18.0558C17.5759 53.2463 17.3175 53.3201 17.0714 53.5047L16.7515 53.7508V57.1838V60.6168L17.0714 60.8629C17.256 61.0106 17.4775 61.1213 17.5636 61.1213C17.699 61.1213 17.7359 61.6258 17.7359 63.816V66.5231L18.0558 66.7692C18.3757 67.0276 18.4619 67.0276 27.5305 67.0276H36.6729L37.0174 66.7323L37.362 66.437L37.3989 63.8037L37.4481 61.1828L37.8296 60.9367C38.0633 60.7891 38.2479 60.5307 38.3217 60.2723C38.371 60.0508 38.4079 58.5004 38.3833 56.8516L38.3464 53.8369L38.0018 53.5416C37.7311 53.3201 37.5096 53.2463 37.0421 53.2463H36.4391V50.0716C36.4391 48.3367 36.3776 46.4048 36.3161 45.7773C36.1684 44.4238 35.6516 42.9349 34.9625 41.8767C34.6549 41.3968 32.2678 38.9235 28.2934 34.9614C22.4363 29.1166 22.0672 28.7721 21.4273 28.5629C20.6767 28.3168 19.4586 28.2922 18.9171 28.5014C18.7203 28.5752 18.548 28.6244 18.5234 28.5998C18.4988 28.5875 18.0927 26.3358 17.6128 23.6041C16.69 18.35 16.5792 17.9439 15.7548 17.0211C14.832 15.9629 12.9247 15.5568 11.5712 16.1228ZM14.0199 18.1408C14.7335 18.6699 14.7581 18.756 15.7794 24.527L16.7515 30.0518L16.4808 30.667C16.2716 31.1346 16.2101 31.5161 16.2101 32.2667C16.2101 33.9278 16.2593 33.9893 21.0213 38.7636C24.8603 42.578 25.2172 42.9103 25.6109 42.9103C26.177 42.9103 26.5953 42.5042 26.5953 41.9505C26.5953 41.5444 26.3123 41.2245 22.424 37.3239C17.9082 32.7958 17.9574 32.845 18.1666 31.7499C18.2773 31.1715 18.8925 30.5563 19.557 30.3471C20.6767 30.0149 20.5045 29.8795 27.1613 36.5487C34.901 44.313 34.3473 43.3409 34.4334 49.3949L34.495 53.2463H27.6043H20.7013L20.6644 51.2529L20.6275 49.2472L17.8466 45.0513C14.7581 40.4124 14.7704 40.4247 14.4874 39.4649C14.1183 38.1729 10.9437 19.8512 11.0175 19.4082C11.1651 18.473 12.1126 17.7593 13.097 17.8455C13.4292 17.8701 13.8353 18.0054 14.0199 18.1408ZM36.4391 57.1838V59.1525H27.5797H18.7203V57.1838V55.215H27.5797H36.4391V57.1838ZM35.4547 63.0901V65.0588H27.5797H19.7046V63.0901V61.1213H27.5797H35.4547V63.0901Z" fill="#DC040C"/>
<path d="M66.7456 16.0613C65.6874 16.4427 64.8753 17.2302 64.3954 18.3377C64.3216 18.5222 63.854 20.8971 63.3741 23.6287C62.8942 26.3481 62.5005 28.5875 62.4882 28.5998C62.4759 28.6121 62.1559 28.5383 61.7868 28.4399C60.9501 28.2184 60.1257 28.3045 59.2028 28.7106C58.6122 28.969 57.7385 29.8057 52.5828 35.0106C49.0391 38.5913 46.4182 41.323 46.0982 41.8028C45.3846 42.8364 44.8432 44.3499 44.6832 45.7034C44.6217 46.3064 44.5601 48.2382 44.5601 50.0101V53.2463H43.9572C43.4896 53.2463 43.2681 53.3201 42.9974 53.5416L42.6529 53.8369L42.616 56.9623C42.5914 58.9188 42.6283 60.2108 42.7021 60.4322C42.776 60.6168 42.9974 60.8506 43.1943 60.9736L43.5635 61.1828L43.6004 63.8037L43.6373 66.437L43.9818 66.7323L44.3264 67.0276H53.4688C62.5374 67.0276 62.6235 67.0276 62.9434 66.7692L63.2634 66.5231V63.816C63.2634 61.6258 63.3003 61.1213 63.4356 61.1213C63.5218 61.1213 63.7433 61.0106 63.9278 60.8629L64.2478 60.6168V57.1838V53.7508L63.9278 53.5047C63.6817 53.3201 63.4233 53.2463 62.9434 53.2463H62.279V51.5851V49.9363L64.8384 46.0849C67.8284 41.5937 67.9638 41.3722 68.296 40.3509C68.579 39.5265 71.9997 20.368 71.9997 19.642C71.9997 18.916 71.6552 17.9808 71.1384 17.3287C70.154 16.0859 68.2345 15.5322 66.7456 16.0613ZM68.8866 18.0547C69.4404 18.3008 69.8587 18.8422 69.9818 19.4697C70.0556 19.8512 66.8687 38.2345 66.5118 39.4649C66.2288 40.4247 66.2411 40.4124 63.1526 45.0513L60.3718 49.2472L60.3348 51.2529L60.2979 53.2463H53.395H46.5043L46.5658 49.3949C46.652 43.3286 46.0982 44.313 53.8379 36.5487C60.4948 29.8795 60.3348 30.0149 61.4423 30.3471C62.1067 30.5563 62.722 31.1715 62.8327 31.7499C63.0419 32.845 63.0911 32.7958 58.5753 37.3239C54.7485 41.163 54.4039 41.5444 54.4039 41.9259C54.4039 42.4919 54.81 42.9103 55.376 42.9103C55.7821 42.9103 56.0774 42.6519 59.978 38.7636C64.7399 33.9893 64.7892 33.9278 64.7892 32.2667C64.7892 31.5161 64.7276 31.1346 64.5185 30.667L64.2478 30.0518L65.2198 24.527C65.9458 20.4664 66.2657 18.916 66.4257 18.6822C66.7087 18.3008 67.6316 17.8086 68.0622 17.8086C68.2345 17.8086 68.6036 17.9193 68.8866 18.0547ZM62.279 57.1838V59.1525H53.4196H44.5601V57.1838V55.215H53.4196H62.279V57.1838ZM61.2946 63.0901V65.0588H53.4196H45.5445V63.0901V61.1213H53.4196H61.2946V63.0901Z" fill="#DC040C"/>
</svg>
