<svg width="87" height="86" viewBox="0 0 87 86" fill="none" xmlns="http://www.w3.org/2000/svg">
<path d="M41.8113 0.302338C41.3746 0.453514 40.6691 0.856636 40.2324 1.17578C38.9558 2.1164 38.8046 2.18359 37.6121 2.18359C35.9828 2.18359 32.9089 2.62031 30.9941 3.10742C17.9429 6.51718 8.85581 18.6949 9.47729 31.998C9.81323 39.1871 12.5847 45.5867 17.5566 50.7098C22.3605 55.648 28.441 58.5875 35.2773 59.2762C36.2347 59.377 38.8214 59.4609 41.0218 59.4609H45.0363V61.3926V63.3242H34.6222C27.7355 63.3242 23.9226 63.3914 23.3347 63.509C21.655 63.8617 20.0425 64.7687 18.6484 66.1629C16.7167 68.0945 15.9777 69.8918 15.9777 72.6129C15.9777 76.5602 18.5644 80.0875 22.3437 81.3305C23.2843 81.6328 23.9562 81.7 26.8285 81.7672C30.6582 81.8512 31.5484 81.7 32.6402 80.793C33.9167 79.7348 34.5046 77.5008 33.8832 76.0227C33.5304 75.166 32.6066 74.2254 31.6828 73.8055C30.9101 73.4359 30.6246 73.4023 27.9371 73.4023C26.2574 73.4023 24.8968 73.3352 24.6953 73.2344C24.3257 73.0328 24.2585 72.2434 24.5777 71.9242C24.7289 71.773 26.4925 71.7227 31.4476 71.7227H38.1328L38.5527 71.3363C39.1574 70.7988 39.2078 70.0934 38.6535 69.5391C38.3343 69.2199 38.0992 69.2031 31.3804 69.2031C24.9976 69.2031 24.4097 69.2367 23.7882 69.5223C22.4781 70.127 21.8566 71.118 21.8566 72.5793C21.8566 74.0406 22.7468 75.25 24.1914 75.7371C24.5273 75.8379 25.955 75.9219 27.6851 75.9219H30.6246L31.1117 76.409C32.0859 77.3832 31.5652 78.9453 30.1878 79.1973C29.8519 79.2645 28.2394 79.298 26.5933 79.2477C23.6707 79.1973 23.6035 79.1805 22.4949 78.6598C20.9832 77.9543 19.8074 76.8121 19.1187 75.4348C18.6148 74.4102 18.5812 74.2254 18.5812 72.5625C18.5812 71.0004 18.6316 70.6812 19.0179 69.8582C19.841 68.1113 21.3023 66.818 23.1667 66.1965C24.1578 65.8605 24.5273 65.8438 34.6222 65.8438H45.0363V67.5234V69.2031H44.1124C42.9871 69.2031 42.5167 69.5727 42.5167 70.4461C42.5167 71.2523 43.1382 71.7227 44.2132 71.7227C45.5234 71.7227 45.2042 72.2937 43.5582 72.8984C40.6355 73.9566 38.3007 76.3586 37.1753 79.4828C36.8058 80.5074 36.7218 80.9945 36.7218 82.4727C36.7218 84.0684 36.7554 84.2867 37.1249 84.8074C37.3433 85.1098 37.8304 85.5129 38.2167 85.6809C38.8718 85.9664 39.5437 86 49.6722 86H60.439L61.1613 85.6137C62.1355 85.093 62.673 84.1187 62.673 82.8254C62.673 81.3473 62.2363 79.6508 61.4804 78.1055C60.3214 75.7371 57.9363 73.6207 55.5343 72.8145C54.5937 72.5121 54.2746 72.2937 54.2746 71.9578C54.2746 71.7898 55.6351 71.7395 61.3796 71.6891C68.2328 71.6219 68.5015 71.6219 69.6437 71.2355C72.8183 70.1941 75.405 67.7418 76.4464 64.7855C77.8406 60.8215 76.7824 56.6391 73.6581 53.7668C72.348 52.5574 70.9874 51.8352 69.291 51.3984C68.1992 51.1129 67.4265 51.0625 64.4871 51.0625C60.9933 51.0625 60.9765 51.0625 60.5734 51.4824C60.0359 52.0031 60.0359 52.6414 60.5734 53.1621C60.9765 53.582 60.9933 53.582 64.3863 53.582C66.7042 53.582 68.0648 53.666 68.6359 53.8172C72.4656 54.8418 75.0355 58.6379 74.4476 62.4004C73.9605 65.575 71.5249 68.1953 68.3671 68.9512C67.5105 69.1527 65.9988 69.2031 60.7917 69.2031H54.2746V67.5402V65.8605L61.1277 65.8102C67.7624 65.7598 67.9808 65.743 68.6359 65.3902C72.096 63.5258 71.9449 58.8562 68.3839 57.227C68.0816 57.0758 63.3785 56.9918 51.5031 56.9246C36.9738 56.8574 34.8742 56.807 33.6144 56.5551C22.4781 54.3379 14.4828 46.3762 12.3328 35.3574C11.8792 33.0227 11.9296 28.202 12.4335 25.8672C13.1726 22.4238 14.3484 19.4844 16.0785 16.8473C20.832 9.52383 28.3234 5.24062 37.3097 4.71992C39.7621 4.58554 40.1988 4.45117 41.4585 3.42656C41.8281 3.10742 42.3488 2.78828 42.6007 2.6875C43.3062 2.41875 50.3105 2.46914 50.9656 2.75468C52.1917 3.27539 52.914 4.70312 52.5781 5.92929C52.3933 6.60117 51.755 7.44101 51.1839 7.77695C50.932 7.92812 48.6644 8.01211 42.7687 8.07929C34.1015 8.19687 33.9839 8.21367 31.0109 9.18789C27.5339 10.3301 24.6953 12.0938 22.0078 14.7645C18.6988 18.0734 16.6832 21.8527 15.6921 26.5391C15.289 28.5043 15.289 32.9387 15.6921 34.9711C16.5656 39.3215 18.5476 43.1344 21.5878 46.3258C24.9304 49.8195 28.8441 52.0031 33.7488 53.1117C35.3109 53.4477 35.8484 53.4812 45.6578 53.5316L55.9542 53.5988L56.3742 53.1789C56.9117 52.6414 56.9285 51.9191 56.4078 51.432C56.1054 51.1465 55.8031 51.0625 55.148 51.0625C54.3417 51.0625 54.2746 51.0289 54.2746 50.6594C54.2746 50.1387 54.5097 49.9875 55.7023 49.7188C58.541 49.1141 62.4882 47.3336 65.1421 45.4691C67.0738 44.1086 70.03 41.1355 71.441 39.1367C73.4734 36.2812 75.1699 32.3844 75.8417 29.0586C76.2449 27.0598 76.4968 23.9691 76.4128 21.8191C76.3456 19.9883 76.3121 19.7867 75.8417 19.0477C75.5394 18.5437 75.0355 18.0398 74.5316 17.7207L73.7085 17.2168L69.1734 17.1664C66.6874 17.1328 64.4535 17.1496 64.2351 17.2168C63.2441 17.452 62.8578 18.5773 63.5128 19.2828C63.8488 19.6523 63.9496 19.6523 68.2999 19.6523C71.2394 19.6523 72.8687 19.7195 73.1542 19.8371C73.8765 20.173 73.9941 20.7609 73.8765 23.65C73.7085 28.0172 73.0535 30.8559 71.4242 34.1816C68.2831 40.5812 62.6394 45.3012 56.0382 47.0312C55.2992 47.216 54.4089 47.4512 54.073 47.552C52.83 47.8711 51.7718 49.2484 51.755 50.5082V51.0625H49.6554H47.5726L47.455 50.2059C47.3374 49.2988 46.8839 48.5094 46.2121 48.0055C45.9769 47.8375 44.9523 47.4848 43.9445 47.216C39.1574 45.9562 35.8652 44.075 32.5226 40.7324C29.0624 37.2891 26.8957 33.2914 25.8542 28.4707C25.6359 27.4125 25.5015 25.9848 25.4343 23.7676C25.3503 20.7273 25.3503 20.5594 25.6863 20.1562L26.0222 19.7363L42.5839 19.6859L59.1289 19.6523L59.4648 19.2156C59.8679 18.6949 59.9015 18.4934 59.616 17.8887C59.4984 17.6199 59.2128 17.4016 58.8265 17.284C58.4234 17.1664 52.8972 17.1328 41.9289 17.1664L25.6359 17.2168L24.9304 17.5863C24.057 18.0566 23.2507 19.0309 23.0156 19.9043C22.7132 20.9961 22.9484 26.7742 23.3683 28.8066C24.5273 34.2488 26.8789 38.616 30.7589 42.4961C34.3871 46.141 38.0152 48.2406 42.9199 49.5508C44.7675 50.0547 45.0363 50.2059 45.0363 50.7937C45.0363 51.0793 44.8347 51.0961 40.2996 51.0121C36.9906 50.9449 35.1933 50.8441 34.3703 50.6762C27.8699 49.2652 22.7132 45.3012 19.925 39.5734C18.85 37.373 18.2789 35.475 17.9933 33.1906C16.7 22.9613 23.5195 13.3871 33.7992 10.9852C34.8406 10.75 36.3187 10.6828 43.1046 10.5988C51.0664 10.498 51.1839 10.498 52.007 10.1117C52.4773 9.89336 53.0988 9.49023 53.4179 9.18789C54.1234 8.51601 54.9464 7.25625 54.9464 6.85312C54.9464 6.56757 55.1648 6.55078 57.8019 6.55078C60.6238 6.55078 60.6742 6.55078 61.0773 6.13086C61.6484 5.57656 61.6316 4.83749 61.0605 4.38398C60.6406 4.06484 60.3886 4.03125 57.8691 4.03125H55.1312L54.7281 3.14101C54.2242 2.03242 53.3675 1.15898 52.2085 0.537498L51.3351 0.0839844L46.9679 0.0503845C43.1718 0.0167923 42.4999 0.0335922 41.8113 0.302338ZM51.755 65.8773C51.755 69.8414 51.8222 72.5457 51.9398 72.9488C52.1917 73.8895 53.0652 74.6453 54.3417 75.082C56.5421 75.8043 58.373 77.3832 59.3136 79.3484C59.8343 80.4738 60.2207 82.1199 60.1199 82.8926L60.0695 83.3965L49.6218 83.4469L39.1574 83.4805V82.607C39.1574 80.7594 39.9972 78.7773 41.3914 77.2992C42.3824 76.2746 43.0878 75.8211 44.8515 75.0988C46.1785 74.5613 46.7496 74.1246 47.1863 73.3184C47.4382 72.8816 47.4718 71.9746 47.5222 66.1293L47.5726 59.4609H49.6722H51.755V65.8773ZM67.9304 59.9648C68.2496 60.2504 68.5519 60.7039 68.6191 60.9895C68.7535 61.6949 68.3503 62.5852 67.6785 62.9883C67.141 63.3074 66.8554 63.3242 60.7078 63.3242H54.2746V61.3926V59.4609H60.8253H67.3593L67.9304 59.9648Z" fill="#C3BEBF"/>
<path d="M46.1618 24.0363C45.5403 24.3891 45.3723 25.0945 45.3723 27.211V29.2266H43.2559C42.0969 29.2266 41.0051 29.3106 40.8204 29.3946C40.1317 29.7809 39.9973 30.3856 39.9973 33.4258C39.9973 36.466 40.1317 37.0707 40.8204 37.4571C41.0051 37.541 42.0969 37.625 43.2559 37.625H45.3723V39.6406C45.3723 41.7906 45.5571 42.4793 46.1954 42.8321C46.6489 43.0672 52.4606 43.0504 52.9813 42.8153C53.6364 42.5129 53.7708 42.0426 53.8043 39.8086L53.8547 37.709L56.0383 37.625C57.2477 37.5746 58.3395 37.4738 58.4907 37.4067C59.1122 37.1043 59.2297 36.4996 59.2297 33.4258C59.2297 30.352 59.1122 29.7473 58.4907 29.4449C58.3395 29.3778 57.2477 29.277 56.0383 29.2266L53.8547 29.1426L53.8043 26.9422C53.7708 24.809 53.7372 24.7082 53.3172 24.2883L52.8805 23.8516H49.6723C47.8079 23.8516 46.3465 23.9356 46.1618 24.0363ZM51.268 28.4371C51.3688 31.5613 51.5536 31.7461 54.7954 31.7461H56.7942V33.409V35.0719L54.5266 35.1391C52.3262 35.1895 52.259 35.2063 51.8055 35.643C51.3688 36.0965 51.352 36.1805 51.2848 38.2969L51.2176 40.4805H49.5547H47.8918V38.3137C47.8918 36.2477 47.875 36.1133 47.4887 35.6598C47.0856 35.1895 47.0688 35.1895 44.8012 35.1391L42.5168 35.0719V33.409V31.7461H44.5325C46.6825 31.7461 47.3711 31.5613 47.7239 30.9231C47.8079 30.7383 47.8918 29.6465 47.8918 28.4875V26.3711H49.5547H51.2176L51.268 28.4371Z" fill="#DC040C"/>
</svg>
