<svg width="87" height="86" viewBox="0 0 87 86" fill="none" xmlns="http://www.w3.org/2000/svg">
<g clip-path="url(#clip0_69_85)">
<path d="M40.4094 1.84668C35.1016 2.31152 30.2809 3.65625 25.3426 6.04688C19.9844 8.65332 15.382 12.1729 11.7203 16.4893C10.343 18.1162 10.1582 18.498 10.5445 19.2285C10.8301 19.7764 11.1156 19.9258 11.8379 19.9258C12.3922 19.9258 12.493 19.8428 14.391 17.6514C19.1781 12.0898 26.5352 7.64062 34.077 5.73145C37.9738 4.75195 39.5024 4.56934 44.0711 4.56934C48.6566 4.56934 50.1516 4.75195 54.082 5.73145C61.7582 7.67383 69.1824 11.9404 74.6414 17.5352C75.5148 18.4482 76.4891 19.4941 76.7914 19.876L77.3289 20.5566L75.1285 20.623C73.0625 20.6729 72.9113 20.6895 72.609 21.0713C72.441 21.2871 72.2898 21.6689 72.2898 21.918C72.2898 23.2793 72.6762 23.4121 76.8586 23.4121C79.9492 23.4121 80.3187 23.3789 80.8059 23.0801C81.1082 22.8975 81.3938 22.582 81.4441 22.3662C81.5113 22.1504 81.5281 20.5068 81.4945 18.7139C81.4441 15.5928 81.4273 15.4434 81.0746 15.0781C80.5707 14.5801 79.6301 14.5801 79.1262 15.0781C78.8406 15.3604 78.7398 15.709 78.6727 16.5723L78.5887 17.7012L77.4129 16.4395C67.8387 6.24609 53.7125 0.68457 40.4094 1.84668Z" fill="#C3BEBF"/>
<path d="M40.275 16.4229C38.9144 17.0372 38.3601 18.2325 38.3601 20.6065V22.0508L36.9828 22.4659C36.2101 22.7149 34.8832 23.2461 34.0097 23.6612L32.4476 24.4082L31.2886 23.3457C30.6503 22.7481 29.8945 22.1338 29.5921 21.9678C28.8699 21.6026 27.3582 21.6026 26.6527 21.9678C25.88 22.3829 22.4199 25.7032 22.0671 26.4004C21.2273 28.0274 21.4625 29.0567 23.0917 30.7832L24.2843 32.045L23.5117 33.5723C23.0917 34.419 22.5375 35.7305 22.2855 36.4776L21.8152 37.8555H20.1859C18.3886 37.8555 17.8511 37.9883 17.1289 38.6524C16.1546 39.5489 16.0203 40.1299 16.0203 43.3838C16.0203 46.5215 16.1042 46.8868 16.9273 47.7832C17.5992 48.5303 18.1871 48.7129 20.1019 48.8125L21.9328 48.8955L22.4199 50.3897C22.6718 51.2032 23.2261 52.5313 23.6292 53.3282L24.3683 54.7725L23.2933 55.8184C22.6886 56.3995 22.0671 57.1465 21.8824 57.4786C21.4792 58.2422 21.4625 59.587 21.832 60.3174C22.2015 60.9981 25.2753 64.2022 26.1152 64.7832C27.6605 65.8125 29.0042 65.5635 30.7511 63.8702L31.9773 62.708L33.7746 63.5547C34.7824 64.0196 36.1429 64.5674 36.8148 64.7666L38.0242 65.1485V66.8916C38.0242 68.4356 38.0746 68.7012 38.4441 69.3321C38.6792 69.7139 39.1496 70.212 39.4855 70.4278C40.0902 70.793 40.3085 70.8096 43.332 70.876C46.3218 70.9258 46.5906 70.9092 47.2289 70.5772C47.9007 70.2452 48.5894 69.4981 48.8582 68.8174C48.9253 68.6348 49.0429 67.7051 49.0933 66.7754L49.1941 65.0489L50.7058 64.5674C51.5457 64.3184 52.8726 63.7705 53.6789 63.3721L55.1402 62.6416L56.2656 63.7705C56.9039 64.4014 57.6597 65.0323 57.9453 65.1651C58.6507 65.4971 60.0785 65.4805 60.7503 65.1485C61.5062 64.75 64.9832 61.4795 65.3695 60.7823C66.2597 59.1553 65.991 57.9932 64.3281 56.3164L63.1187 55.0879L63.9082 53.5772C64.3449 52.7305 64.8992 51.4356 65.1511 50.7051L65.6214 49.3438L67.4355 49.2774C69.132 49.2276 69.2832 49.1944 69.955 48.7295C70.3414 48.4473 70.8453 47.8995 71.0636 47.501C71.4332 46.8204 71.45 46.5879 71.45 43.7989C71.45 40.5118 71.366 40.1133 70.4253 39.2334C69.6191 38.4864 69.132 38.3536 67.2003 38.3536H65.4871L65.0167 36.8926C64.748 36.0957 64.1937 34.751 63.7906 33.9043L63.0347 32.3438L64.2777 31.0655C65.9238 29.3555 66.2261 28.2266 65.4367 26.6495C65.0503 25.8692 61.5398 22.4161 60.7839 22.0674C60.0281 21.7188 58.9531 21.669 58.2308 21.9346C57.9789 22.0176 57.223 22.6153 56.5679 23.2627L55.3921 24.4248L53.4941 23.5118C52.4527 23.0137 51.1089 22.4825 50.521 22.3164L49.446 22.001V20.5069C49.446 18.7471 49.2613 17.9668 48.6566 17.2696C47.7832 16.2403 47.2792 16.1075 43.9535 16.1075C41.4003 16.1075 40.8628 16.1573 40.275 16.4229ZM46.5906 21.1709C46.641 22.4493 46.7417 23.6114 46.8089 23.7608C46.9937 24.126 47.4472 24.3252 49.0261 24.7403C50.4371 25.1055 53.0406 26.251 54.3339 27.0811C55.5769 27.8614 55.7953 27.7784 57.6933 25.9688C59.121 24.6075 59.3898 24.4082 59.6753 24.5577C60.1457 24.8067 62.9675 27.878 63.0179 28.1934C63.0347 28.3594 62.43 29.1065 61.4558 30.0528C60.2128 31.2813 59.8601 31.7295 59.8601 32.0782C59.8601 32.3438 60.2296 33.1905 60.7 34.0039C61.6574 35.6807 62.2621 37.2081 62.7156 39.084C63.1691 40.9766 63.2195 41.0098 66.0582 41.0098C67.6203 41.0098 68.4265 41.0762 68.5609 41.209C68.8464 41.4913 68.8464 46.0069 68.5609 46.2891C68.4265 46.4219 67.6539 46.4883 66.2261 46.4883C63.5218 46.4883 63.4546 46.5381 62.8164 48.7959C62.3292 50.4893 61.355 52.6973 60.4984 54.0088C59.6585 55.3038 59.7425 55.5694 61.5062 57.3291C62.3628 58.1758 63.0515 58.9727 63.0515 59.1221C63.0515 59.4375 59.6585 62.7579 59.3394 62.7579C59.205 62.7579 58.382 62.044 57.5085 61.1807C55.5937 59.2715 55.4425 59.2383 53.5109 60.334C51.9152 61.2471 50.0171 62.0108 48.5054 62.3428C46.7921 62.7247 46.7753 62.7413 46.5066 63.2559C46.3218 63.6045 46.2546 64.3018 46.2546 65.8789C46.2546 67.6885 46.2042 68.0538 45.9859 68.1368C45.4652 68.336 41.1316 68.253 40.9132 68.0371C40.7789 67.9043 40.7117 67.1407 40.7117 65.7295C40.7117 63.0567 40.6613 62.9903 38.3769 62.3594C36.6972 61.8946 34.4296 60.9151 33.1363 60.1016C31.8261 59.2549 31.4566 59.3545 29.7097 61.0977C28.8867 61.9278 28.0804 62.5918 27.946 62.5918C27.6269 62.5918 24.2507 59.2549 24.2507 58.9395C24.2507 58.8233 24.973 57.9932 25.8632 57.1133C27.7781 55.1875 27.8117 55.0381 26.7871 53.3448C25.8632 51.8008 24.9898 49.6758 24.6371 48.1153C24.2171 46.1563 24.0996 46.0899 21.2105 46.0235C18.9765 45.9737 18.8757 45.9571 18.7917 45.6084C18.7414 45.4092 18.7246 44.2305 18.7414 43.002L18.7917 40.7608L21.0593 40.6778C22.4199 40.628 23.4781 40.5118 23.6964 40.379C23.9652 40.2461 24.1667 39.8145 24.4187 38.9678C24.9898 36.9756 25.8968 34.8174 26.6863 33.5557C27.8285 31.7295 27.7781 31.5137 25.9136 29.6377C25.0738 28.7911 24.4187 27.9942 24.4523 27.8614C24.5363 27.5459 27.8621 24.4082 28.114 24.4082C28.2484 24.4082 29.0714 25.1221 29.9785 25.9854C31.8765 27.8448 31.9941 27.8614 33.7074 26.8985C35.4375 25.9024 37.0332 25.2549 38.8472 24.8067C41.182 24.2256 41.2156 24.1758 41.2156 21.2539C41.2156 19.5772 41.266 18.9297 41.4339 18.8633C41.5347 18.8301 42.7273 18.7969 44.071 18.8135L46.5066 18.8467L46.5906 21.1709Z" fill="#C3BEBF"/>
<path d="M42.2739 31.5635C39.452 31.8955 36.8485 33.1572 34.8329 35.1826C32.5485 37.4902 31.4903 39.8809 31.3392 43.1182C31.2384 45.459 31.5575 46.9531 32.6157 49.0283C33.254 50.29 33.6403 50.8047 34.9001 52.0498C37.5036 54.5898 40.1743 55.6855 43.7353 55.6855C46.0532 55.6855 47.481 55.3701 49.3622 54.457C52.5872 52.8965 54.9724 50.0742 55.9298 46.6543C56.4001 44.9775 56.3665 41.9561 55.8626 40.3457C55.3587 38.8018 54.754 37.5898 54.4013 37.457C53.931 37.2744 53.2255 37.3408 52.856 37.6064C52.2345 38.0381 52.2345 38.6523 52.8392 40.1133C53.2927 41.2422 53.3767 41.6738 53.4438 43.2012C53.511 44.6953 53.4606 45.1602 53.1247 46.2393C52.2849 49.0781 49.9333 51.4688 47.0442 52.4648C45.7341 52.9131 43.2817 53.0791 41.854 52.8135C41.2661 52.6973 40.1743 52.3154 39.4017 51.9502C34.6985 49.709 32.7165 44.1641 35.0009 39.5654C36.5798 36.3779 40.0903 34.2197 43.6681 34.2031C44.8774 34.2031 45.5157 33.9375 45.7677 33.3398C46.3556 31.9287 44.995 31.2314 42.2739 31.5635Z" fill="#DC040C"/>
<path d="M48.4886 32.875C48.0351 33.0576 47.7664 33.539 47.7664 34.1865C47.7664 34.8008 48.0855 35.1328 49.3285 35.8467C50.3867 36.4443 50.9242 36.4277 51.4617 35.7471C52.1335 34.9004 51.7976 34.1201 50.4035 33.3066C49.3285 32.6924 49.1101 32.626 48.4886 32.875Z" fill="#DC040C"/>
<path d="M4.2289 27.2305C2.59961 28.0439 1.15507 28.874 1.0039 29.0898C0.651168 29.5879 0.667965 30.0859 1.07109 30.6006C1.62539 31.2979 2.12929 31.2979 3.54023 30.6504C4.2289 30.3184 4.83359 30.0527 4.85039 30.0527C4.88398 30.0527 4.56484 30.999 4.14492 32.1611C3.1707 34.9004 2.16289 38.8184 1.89414 40.9102C1.67578 42.6533 1.75976 45.8574 2.0789 48.248C3.35547 57.6611 7.55468 65.9287 14.4414 72.5527C17.9184 75.9062 21.0258 78.0645 25.3426 80.1895C31.1711 83.0449 37.4027 84.5059 43.7519 84.5059C46.1539 84.5059 46.4227 84.4727 46.8258 84.1572C47.4137 83.709 47.4305 82.7295 46.893 82.2314C46.5402 81.916 46.2211 81.8828 43.3992 81.7998C37.1004 81.6006 32.1453 80.4053 26.6863 77.7822C22.5375 75.79 19.3965 73.5654 16.0035 70.2285C12.5266 66.792 9.93984 63.1396 7.9914 58.8896C5.58945 53.6104 4.46406 48.248 4.64882 42.7529C4.71601 40.3291 4.7832 39.8643 5.40468 37.5234C5.99257 35.2656 7.21875 31.6133 7.58828 30.9492C7.67226 30.7998 7.90742 31.165 8.27695 32.0117C8.59609 32.709 8.99922 33.4561 9.18398 33.6553C9.6207 34.1533 10.4437 34.1533 11.0652 33.6719C11.4684 33.373 11.5187 33.2402 11.4348 32.6426C11.3844 32.2607 10.7293 30.6504 9.97343 29.04C8.59609 26.085 8.31054 25.7197 7.4875 25.7529C7.33632 25.7529 5.8582 26.417 4.2289 27.2305Z" fill="#C3BEBF"/>
<path d="M81.6792 27.8779C81.4104 28.1436 81.1921 28.4756 81.1921 28.5918C81.1921 28.7246 81.4608 29.5879 81.78 30.5342C83.2749 34.8672 83.8796 38.4531 83.8796 42.9189C83.8796 44.6455 83.762 46.6377 83.6276 47.6172C82.0823 58.3584 75.414 68.4522 65.6046 74.8936C63.589 76.2217 59.7089 78.3135 58.7179 78.6123C58.3483 78.7119 58.3483 78.6787 58.9194 77.8486C59.6081 76.8359 59.6753 76.2715 59.1714 75.6406C58.9026 75.3086 58.6843 75.209 58.1972 75.209C57.8612 75.209 57.4581 75.3086 57.3069 75.4248C57.1558 75.5244 56.2319 76.8525 55.2577 78.3467C53.3933 81.1855 53.2253 81.667 53.7796 82.3311C53.9308 82.5137 55.4425 83.2773 57.139 84.0078C60.4311 85.4521 60.9183 85.5352 61.4558 84.7881C61.7581 84.3564 61.7917 83.5098 61.5061 83.1279C61.3886 82.9785 60.6999 82.5801 59.9608 82.2646L58.6507 81.6504L60.2464 80.9531C69.871 76.6699 77.6815 69.498 82.2839 60.7158C86.3655 52.9297 87.6253 44.5791 86.0464 35.8135C85.6769 33.7715 84.921 30.9326 84.2659 29.1729C83.594 27.4131 82.6534 26.9316 81.6792 27.8779Z" fill="#C3BEBF"/>
</g>
<defs>
<clipPath id="clip0_69_85">
<rect width="86" height="85" fill="white" transform="translate(0.735107 1)"/>
</clipPath>
</defs>
</svg>
