<svg width="101" height="99" viewBox="0 0 101 99" fill="none" xmlns="http://www.w3.org/2000/svg">
<path d="M49.2485 7.01955V10.8814H50.811H52.3735V7.01955V3.15769H50.811H49.2485V7.01955Z" fill="#DC040C"/>
<path d="M25.7524 9.29803C25.2446 9.80007 24.8345 10.3021 24.8345 10.3987C24.8345 10.5145 26.2017 11.9434 27.8618 13.5847L30.8892 16.5776L32.0024 15.4577L33.1353 14.3571L30.1079 11.3641C28.4478 9.72283 27.0024 8.37118 26.8853 8.37118C26.7681 8.37118 26.2603 8.79599 25.7524 9.29803Z" fill="#DC040C"/>
<path d="M71.5532 11.3255C69.9321 12.9475 68.5845 14.3571 68.5845 14.4536C68.5845 14.7046 70.3813 16.4811 70.6353 16.4811C70.7524 16.4811 72.1978 15.1294 73.8579 13.4881L76.8853 10.4952L75.811 9.43318C75.2251 8.8539 74.6978 8.37117 74.6392 8.37117C74.5806 8.37117 73.1938 9.70351 71.5532 11.3255Z" fill="#DC040C"/>
<path d="M46.4163 14.2798C34.8538 15.8246 25.2249 22.6601 19.971 33.0678C14.9905 42.8769 15.3421 54.9838 20.8694 64.6385C23.8967 69.9486 28.7991 74.7759 34.0139 77.595C36.6507 79.0239 37.2366 79.4874 37.7444 80.5301C38.1936 81.4183 38.2132 81.65 38.3108 86.9601C38.3889 91.826 38.4475 92.5404 38.7796 93.197C39.2483 94.1431 40.635 95.321 41.5921 95.6106C42.1389 95.7844 45.0882 95.8423 51.6311 95.8423C62.2757 95.8423 62.1389 95.8616 63.5647 94.2976C64.0335 93.7955 64.5217 93.0232 64.6389 92.5984C64.7952 92.0963 64.8733 90.1268 64.8733 86.767C64.8733 83.3106 64.9514 81.4376 65.1077 80.8969C65.4397 79.8156 66.846 78.5026 69.4827 76.8227L71.6507 75.4517L72.471 76.1662C74.5022 77.9426 77.3733 77.904 79.2288 76.0503C81.1233 74.1966 81.1428 71.3774 79.3069 69.3307L78.5452 68.4617L79.5217 67.0135C84.5413 59.4636 86.3186 49.9634 84.4046 40.8494C83.0374 34.4194 79.5608 28.2405 74.5999 23.5097C67.0803 16.3266 56.6311 12.9089 46.4163 14.2798ZM56.6702 17.6203C69.2678 20.0726 78.9749 29.6887 81.5139 42.2204C82.0803 45.0589 82.1389 50.7358 81.6116 53.555C80.9085 57.3782 79.4827 61.1242 77.5296 64.3295L76.3186 66.3184L72.3538 62.3986C70.1663 60.236 68.3889 58.4209 68.3889 58.3437C68.3889 58.2857 68.6819 57.7258 69.0335 57.1272L69.6585 56.0266L72.8225 56.1617L75.9866 56.2969L76.1038 55.8335C76.5139 54.0763 77.5491 48.6504 77.471 48.5538C77.4319 48.4766 76.1233 47.9553 74.5608 47.3953C71.4358 46.256 71.6702 46.4878 71.4163 44.383L71.3186 43.4176L73.7991 41.8728C75.1467 41.0232 76.3382 40.2702 76.4358 40.2122C76.5725 40.135 73.5061 33.2609 73.1936 32.9519C73.1546 32.9133 71.7874 33.2416 70.1663 33.6857L67.1975 34.516L66.1428 33.454L65.0686 32.4113L66.1428 29.6693C66.7288 28.1632 67.2171 26.8502 67.2171 26.7536C67.2171 26.5799 60.5764 22.8532 60.2639 22.8532C60.1663 22.8725 59.2678 23.9152 58.2522 25.1703C57.2366 26.4447 56.3186 27.4874 56.2014 27.4874C56.0061 27.4874 55.2639 27.3329 53.8186 27.0047C53.4671 26.9274 53.2913 26.4833 52.6663 24.2048C52.2561 22.7373 51.846 21.405 51.7678 21.2891C51.6702 21.1153 50.6741 21.1733 47.7639 21.4822C45.635 21.6946 43.8382 21.9456 43.7405 22.0422C43.6624 22.1194 43.5647 23.4904 43.5452 25.0737L43.4866 27.9701L42.2171 28.588C41.5139 28.9356 40.9085 29.2059 40.8499 29.2059C40.7913 29.2252 39.7366 28.4336 38.5061 27.4681C37.2757 26.4833 36.1624 25.6337 36.0452 25.5372C35.8694 25.3827 32.7249 27.9894 30.3225 30.2872L29.8538 30.7507L31.6116 33.3188L33.3889 35.8869L32.6663 37.1227L31.9632 38.3392L28.7991 38.2041C25.8499 38.0689 25.6546 38.0882 25.5569 38.4165C25.3225 39.2468 24.0139 45.8505 24.0725 45.9085C24.1116 45.9278 25.4397 46.4105 27.0217 46.9898C30.2249 48.1097 29.8928 47.8008 30.2053 50.0407L30.303 50.8517L27.7249 52.5123C26.2991 53.4391 25.1077 54.2115 25.0686 54.2308C25.01 54.2887 28.2717 61.2594 28.4085 61.4138C28.4671 61.4525 29.8342 61.1242 31.4553 60.6801L34.4241 59.8498L35.4788 60.9118L36.5335 61.9545L35.4788 64.6578C34.8928 66.1446 34.4046 67.4577 34.4046 67.5735C34.4046 67.7666 41.0061 71.5126 41.3577 71.5126C41.4553 71.4933 42.3538 70.4506 43.3694 69.1955C44.3655 67.9211 45.2835 66.8784 45.4202 66.8784C45.6155 66.8784 46.3382 67.0329 47.803 67.3611C48.1546 67.4383 48.3303 67.8825 48.9553 70.1416C49.346 71.6092 49.7561 72.9222 49.8342 73.0574C49.9514 73.2504 50.7913 73.2118 53.8577 72.8836C55.9866 72.6519 57.7639 72.4201 57.8225 72.3622C57.8811 72.3043 57.9592 70.9333 57.9983 69.3113L58.0569 66.357L59.5999 65.6812L61.1233 64.9861L65.2639 69.0989L69.4241 73.2118L66.9046 74.8531C65.5178 75.7413 64.2092 76.6682 64.0139 76.8806L63.6428 77.3054H51.4358H39.2483L38.5647 76.7261C38.1936 76.3979 37.3147 75.8572 36.5921 75.4903C28.135 71.2616 22.0413 63.2096 20.1077 53.7094C19.4827 50.6006 19.4827 45.3485 20.1077 42.2204C21.8655 33.4926 27.0413 26.1551 34.6975 21.5015C38.1546 19.3968 42.8811 17.7941 47.178 17.2535C49.4046 16.9831 54.3264 17.1762 56.6702 17.6203ZM50.1858 27.0047C50.5569 28.3756 50.8889 29.5342 50.9085 29.5535C50.928 29.5921 52.2561 29.8624 53.8577 30.1907C55.4592 30.4996 56.9632 30.8086 57.1975 30.8665C57.5491 30.9438 57.9007 30.6155 59.3069 28.8391L61.0061 26.715L62.1585 27.3329C62.7835 27.6805 63.3108 28.0474 63.3108 28.1439C63.3108 28.2598 62.9007 29.399 62.3928 30.7121L61.4944 33.0678L63.4475 35.1532C66.4553 38.3585 65.8499 38.0882 68.5452 37.3545C69.7952 37.0069 70.9866 36.6786 71.1624 36.64C71.4358 36.5628 71.6311 36.7945 72.0022 37.6441C72.2757 38.262 72.471 38.8606 72.4319 38.9571C72.3733 39.073 71.3772 39.7681 70.2249 40.5019C69.053 41.2356 68.0764 41.8535 68.0374 41.8728C67.9788 41.9308 68.76 48.6118 68.8382 48.6311C68.8577 48.6504 70.01 49.0559 71.3967 49.5579C72.7835 50.06 73.9358 50.4848 73.9749 50.5041C73.9944 50.5427 73.8967 51.122 73.7405 51.8171L73.4475 53.0722L70.6741 52.9371C69.1507 52.8598 67.8811 52.8598 67.8421 52.9371C67.8225 53.0143 67.3928 53.7481 66.9046 54.5977L66.0061 56.1038L64.678 54.8101L63.3499 53.5163L63.7991 52.4157C66.885 44.943 62.8811 36.5048 55.01 33.9174C53.6233 33.454 53.1546 33.396 50.8108 33.396C48.5257 33.4154 47.9788 33.4733 46.6702 33.8981C44.346 34.6511 42.6858 35.6745 40.928 37.4124C39.1702 39.1502 38.1546 40.7915 37.3733 43.0893C36.9241 44.383 36.8655 44.9044 36.8655 47.1829C36.8655 49.5 36.9241 49.9634 37.3928 51.3344C38.0569 53.3426 39.0921 55.0611 40.5569 56.6251C44.1507 60.4484 49.5608 61.9352 54.6975 60.5063L56.1428 60.1008L57.3928 61.3173C58.0764 61.9738 58.6233 62.5724 58.6233 62.6496C58.6233 62.7076 57.8421 63.0938 56.8655 63.5186C55.1467 64.233 55.1077 64.2716 55.0882 64.9474C55.0686 65.3143 55.01 66.5308 54.9319 67.6507L54.8147 69.6782L53.5647 69.8327C52.8811 69.9099 52.2561 69.9099 52.178 69.8327C52.0999 69.7555 51.7483 68.5969 51.3967 67.2646C51.0257 65.9322 50.7327 64.8316 50.7132 64.8123C50.6936 64.7737 49.3655 64.5033 47.7639 64.1751C46.1624 63.8661 44.6585 63.5572 44.4241 63.4992C44.0725 63.422 43.721 63.7696 42.2952 65.5267L40.596 67.6507L39.4436 67.0329C38.8186 66.6853 38.3108 66.3184 38.3108 66.2026C38.3108 66.106 38.721 64.9474 39.2092 63.6537L40.1272 61.298L38.1741 59.2126C35.1663 56.0265 35.7717 56.2776 33.0764 57.0113C31.8264 57.3589 30.635 57.6871 30.4397 57.7258C30.1663 57.803 29.9905 57.5906 29.5999 56.7217C29.3264 56.1231 29.1507 55.5245 29.1897 55.4087C29.2483 55.2928 30.2444 54.5784 31.3967 53.8639C32.5686 53.1302 33.5452 52.5123 33.5842 52.4929C33.6233 52.4543 32.8421 45.754 32.7835 45.7154C32.7639 45.7154 31.6116 45.3099 30.2249 44.8078C28.8382 44.3058 27.6858 43.881 27.6467 43.8424C27.6077 43.8038 27.7249 43.1086 28.0569 41.6797C28.135 41.3129 28.2327 41.2936 30.9085 41.4287C32.4319 41.5253 33.7014 41.5639 33.721 41.5253C34.1507 40.8881 36.9436 35.8869 36.9436 35.7518C36.9436 35.6552 36.2796 34.5932 35.4788 33.4154L33.9944 31.272L34.9514 30.3259L35.928 29.3797L38.1155 31.1175L40.303 32.8361L43.3889 31.4651L46.4749 30.0942L46.6116 27.6805C46.6702 26.3482 46.7483 25.1317 46.7678 24.9772C46.8069 24.7841 47.1389 24.6489 47.7835 24.5717C49.5608 24.3593 49.4241 24.2241 50.1858 27.0047ZM54.346 36.9876C57.2561 38.0496 59.3069 39.826 60.5764 42.4328C62.6467 46.6808 61.846 51.4889 58.5061 54.7908C54.2483 58.9809 47.3733 59.0195 43.1546 54.8487C40.9671 52.686 39.971 50.311 39.971 47.1829C39.971 44.132 40.9475 41.7377 43.0178 39.6523C44.5803 38.0882 46.5335 37.0262 48.76 36.5435C50.1272 36.2538 52.9202 36.4855 54.346 36.9876ZM69.6194 64.1365C76.8655 71.3195 77.5686 72.0533 77.5686 72.6519C77.5686 73.5208 76.6702 74.409 75.7913 74.409C75.1858 74.409 74.4436 73.7139 67.0999 66.4729L59.053 58.5174L60.2639 57.3975C60.9085 56.7796 61.4944 56.2776 61.553 56.2583C61.6116 56.2583 65.2444 59.8112 69.6194 64.1365ZM61.8655 80.9935C61.8069 81.3217 61.7483 82.3644 61.7483 83.3106V85.0291H51.5921H41.4358V83.4265C41.4358 82.5575 41.3577 81.5148 41.26 81.1093L41.0842 80.3949H51.5335H62.0022L61.8655 80.9935ZM61.7483 89.953C61.7483 91.6522 61.7092 91.8453 61.26 92.2701L60.7913 92.7528H51.5921H42.3928L41.9241 92.2701C41.4749 91.8453 41.4358 91.6522 41.4358 89.953V88.1186H51.5921H61.7483V89.953Z" fill="#C3BEBF"/>
<path d="M10.147 21.7332L9.20947 22.8918L13.1353 25.9813C15.2837 27.6805 17.061 29.0514 17.1001 29.0128C17.1196 28.9742 17.5493 28.4335 18.0571 27.8156L18.9751 26.6764L15.0884 23.6062C12.9595 21.9263 11.1821 20.536 11.1431 20.536C11.104 20.5553 10.6548 21.0767 10.147 21.7332Z" fill="#DC040C"/>
<path d="M86.5142 23.6062L82.6665 26.6571L83.6626 27.8543C84.5415 28.9356 84.6782 29.0321 84.9517 28.7811C85.186 28.588 91.8267 23.3552 92.3931 22.9304C92.4712 22.8725 90.6743 20.6519 90.479 20.594C90.4204 20.5747 88.6235 21.9263 86.5142 23.6062Z" fill="#DC040C"/>
<path d="M3.93604 44.8658V46.4105H8.62353H13.311V44.8658V43.321H8.62353H3.93604V44.8658Z" fill="#DC040C"/>
<path d="M88.311 44.8658V46.4105H92.9985H97.686V44.8658V43.321H92.9985H88.311V44.8658Z" fill="#DC040C"/>
<path d="M10.772 62.4565C8.99463 63.5185 7.25635 64.5419 6.92432 64.7543L6.27979 65.1212L6.98291 66.2991C7.37354 66.9363 7.78369 67.5156 7.88135 67.5735C8.0376 67.67 15.6548 63.3061 15.6548 63.113C15.6548 62.9972 14.2485 60.6994 14.1118 60.6221C14.0532 60.5835 12.5493 61.4138 10.772 62.4565Z" fill="#DC040C"/>
<path d="M86.6704 61.8773C86.2798 62.5145 85.9673 63.0937 85.9673 63.171C85.9673 63.2868 88.7798 64.9861 92.8032 67.3032L93.7017 67.8245L94.4243 66.608C94.8149 65.9515 95.147 65.3143 95.147 65.2178C95.1274 65.0247 87.8813 60.6994 87.5688 60.6994C87.4712 60.6994 87.061 61.2207 86.6704 61.8773Z" fill="#DC040C"/>
</svg>
