<svg width="69" height="75" viewBox="0 0 69 75" fill="none" xmlns="http://www.w3.org/2000/svg">
<path d="M33.8234 1.94496C33.3889 2.35141 33.3469 2.79991 33.4029 6.20571L33.445 9.26111L33.8374 9.59748C34.3139 10.0039 34.6223 10.0179 35.1128 9.63953L35.4772 9.35922V5.79925C35.4772 2.30937 35.4772 2.22527 35.1689 1.94496C34.7765 1.58056 34.2158 1.58056 33.8234 1.94496Z" fill="#DC040C"/>
<path d="M23.7037 7.69115C23.5495 7.84532 23.4233 8.15366 23.4233 8.39193C23.4233 8.98058 24.3764 11.3072 24.6847 11.4754C25.4136 11.8678 26.2825 11.4193 26.2685 10.6625C26.2685 10.1439 25.4136 7.99949 25.0912 7.67713C24.7408 7.32674 24.054 7.34075 23.7037 7.69115Z" fill="#DC040C"/>
<path d="M43.9139 7.64911C43.5215 7.9995 42.5964 10.4382 42.7086 10.8166C42.9188 11.5314 43.6336 11.8258 44.3064 11.4754C44.6147 11.3072 45.5678 8.9806 45.5678 8.39194C45.5678 7.551 44.5446 7.1025 43.9139 7.64911Z" fill="#DC040C"/>
<path d="M11.5103 11.1947C11.3421 11.3629 11.23 11.6573 11.23 11.9236C11.23 12.316 11.5243 12.6664 13.5846 14.7407C14.874 16.0441 16.0794 17.1654 16.2616 17.2355C16.9203 17.4878 17.6772 16.8991 17.6772 16.1423C17.6772 16.0161 16.5559 14.7827 15.1964 13.4092C12.9819 11.1807 12.6596 10.9144 12.2531 10.9144C11.9728 10.9144 11.6785 11.0266 11.5103 11.1947Z" fill="#DC040C"/>
<path d="M53.7957 13.4096C52.4362 14.7831 51.3149 16.0165 51.3149 16.1286C51.3149 16.9275 52.0578 17.5021 52.7305 17.2358C52.9127 17.1657 54.1181 16.0445 55.4215 14.741C57.4678 12.6667 57.7621 12.3163 57.7621 11.9239C57.7621 11.3353 57.3276 10.9148 56.739 10.9148C56.3325 10.9148 56.0102 11.1811 53.7957 13.4096Z" fill="#DC040C"/>
<path d="M32.464 12.5545C31.3287 12.6527 28.848 13.1852 27.5866 13.5777C26.0869 14.0682 22.7932 15.652 22.2607 16.1566C21.6159 16.7452 21.8542 17.7824 22.6671 17.9786C22.9614 18.0627 23.2978 17.9225 24.2509 17.3759C26.3532 16.1706 28.4836 15.3717 30.9223 14.8952C32.6462 14.5588 36.3183 14.5448 38.0703 14.8811C45.7088 16.3668 51.7495 21.6927 53.9639 28.9248C55.1272 32.709 55.1553 36.8716 54.048 40.6558C52.8567 44.7904 50.2358 48.5746 46.7319 51.2516C44.6716 52.8074 43.5924 54.293 43.1579 56.1571L42.9757 56.8859H41.0416H39.0934L38.6729 57.3064C38.3365 57.6568 38.2665 57.8109 38.3365 58.1193C38.5188 58.8901 38.8131 58.9882 40.9715 58.9882H42.9196L42.8776 62.1137L42.8356 65.2532L42.4291 65.7718C41.6162 66.837 41.6723 66.837 34.4963 66.837C28.5957 66.837 28.0771 66.8089 27.5586 66.5707C26.9138 66.2764 26.4513 65.8138 26.2411 65.2532C26.143 65.015 26.0869 63.6554 26.0869 61.9175V58.9882H30.8522C35.4353 58.9882 35.6315 58.9742 35.8978 58.7079C36.3183 58.2875 36.2763 57.5446 35.8137 57.1802C35.4493 56.8999 35.2811 56.8859 30.7261 56.8859H26.0168L25.8346 56.1431C25.4001 54.251 24.2929 52.7653 22.0925 51.1115C17.6355 47.7617 14.6081 42.1835 14.1877 36.5493C13.7672 30.8029 15.6593 25.3648 19.5276 21.2162C20.3685 20.3052 20.6208 19.9268 20.6208 19.6184C20.6208 19.0298 20.2004 18.5813 19.6397 18.5813C19.2333 18.5813 19.009 18.7354 17.9719 19.8286C15.4911 22.4215 13.599 25.8834 12.716 29.4153C12.2675 31.2093 12.1974 31.6158 12.0713 33.4098C11.5667 41.0062 14.9585 48.4065 21.0413 52.9615C22.4849 54.0407 23.1016 54.7695 23.6342 56.045C23.8724 56.6056 23.9145 57.1802 23.9846 61.0906C24.0546 65.3513 24.0687 65.5335 24.391 66.2483C24.8115 67.1734 26.0028 68.2806 26.9278 68.617C27.4184 68.7851 27.6567 68.9674 27.8108 69.2897C28.5537 70.8314 30.1795 72.275 31.9314 72.9618C32.7724 73.2982 33.0807 73.3402 34.4963 73.3262C35.7997 73.3262 36.2763 73.2701 36.949 73.0179C38.6028 72.4152 40.0605 71.1958 40.9575 69.6541C41.3639 68.9533 41.5321 68.7992 42.0927 68.6029C42.9897 68.2806 44.1951 67.1593 44.6015 66.2483C44.9239 65.5335 44.9379 65.3513 45.008 61.0906C45.0781 57.1942 45.1201 56.6056 45.3584 56.045C45.891 54.7555 46.5497 53.9987 48.2316 52.7513C49.5771 51.7422 51.6654 49.5557 52.7446 48.0421C55.814 43.7253 57.2436 38.7077 56.9072 33.3958C56.711 30.2422 55.9682 27.5933 54.4545 24.65C50.9646 17.8805 44.3913 13.4095 36.7107 12.5966C35.4634 12.4705 33.6553 12.4424 32.464 12.5545ZM38.8411 69.0655C38.8411 69.3318 37.3835 70.5231 36.6266 70.8735C35.9399 71.1958 35.6456 71.2519 34.4963 71.2519C33.347 71.2519 33.0527 71.1958 32.3659 70.8735C31.6091 70.5231 30.1514 69.3318 30.1514 69.0655C30.1514 68.9954 32.1136 68.9393 34.4963 68.9393C36.8929 68.9393 38.8411 68.9954 38.8411 69.0655Z" fill="#DC040C"/>
<path d="M31.6362 21.4684C31.3839 21.7207 31.2858 22.0571 31.1456 23.1082C30.9074 24.8882 30.9074 24.8882 30.3187 25.0844C30.0384 25.1685 29.5759 25.3647 29.3096 25.4909L28.819 25.7432L27.5016 24.7761C26.6887 24.1734 26.058 23.809 25.8337 23.809C25.5674 23.809 25.0488 24.2295 23.6893 25.575C22.7082 26.5561 21.8673 27.4951 21.8252 27.6773C21.7131 28.0978 21.8533 28.3641 22.8764 29.7096L23.6893 30.7888L23.2548 31.8119C23.0166 32.3866 22.8203 32.8631 22.8063 32.8771C22.7923 32.9051 22.0915 33.0173 21.2366 33.1294C19.0361 33.4517 19.0782 33.3817 19.0782 36.4931C19.0782 39.6186 19.0361 39.5485 21.2506 39.8709C22.1056 39.997 22.8063 40.1092 22.8063 40.1092C22.8203 40.1232 23.0166 40.5997 23.2548 41.1743L23.6893 42.2115L22.7082 43.543C21.9093 44.6362 21.7411 44.9445 21.8112 45.2389C21.9093 45.6313 25.161 48.995 25.5674 49.1212C26.0159 49.2613 26.4364 49.0651 27.6277 48.1541L28.791 47.2571L29.7861 47.6916C30.3327 47.9299 30.8233 48.1821 30.8653 48.2382C30.9074 48.3083 31.0335 48.995 31.1316 49.7659C31.3979 51.8823 31.3278 51.8402 34.4953 51.8402C37.6629 51.8402 37.5928 51.8823 37.8591 49.7659C37.9572 48.995 38.0833 48.3083 38.1254 48.2382C38.1674 48.1821 38.658 47.9299 39.1906 47.6916L40.1857 47.2711L41.363 48.1541C42.5683 49.0651 42.9748 49.2613 43.4233 49.1212C43.5634 49.0791 44.4604 48.2522 45.4135 47.2992C47.5439 45.1548 47.5299 45.2248 46.2264 43.4729L45.3014 42.2115L45.7218 41.1743C45.9601 40.5997 46.1703 40.1232 46.1844 40.1092C46.1844 40.1092 46.8992 39.997 47.7401 39.8709C49.9546 39.5485 49.9125 39.6186 49.9125 36.5071C49.9125 33.3676 49.9686 33.4658 47.7681 33.1294L46.1703 32.8911L45.7218 31.8259L45.2874 30.7748L46.1003 29.7096C47.1374 28.3781 47.2776 28.0978 47.1655 27.6773C47.1234 27.4951 46.2825 26.5561 45.3014 25.575C43.9419 24.2295 43.4233 23.809 43.157 23.809C42.9327 23.809 42.302 24.1734 41.4891 24.7761L40.1857 25.7291L39.4849 25.4208C39.0925 25.2526 38.6159 25.0424 38.4197 24.9723C38.0833 24.8321 38.0413 24.72 37.8731 23.3185C37.5928 21.09 37.6909 21.146 34.4953 21.146C32.0426 21.146 31.9445 21.1601 31.6362 21.4684ZM35.8829 24.4677C36.1212 26.2898 36.2753 26.542 37.2564 26.8224C37.7049 26.9485 38.5038 27.2709 39.0224 27.5372C39.541 27.8035 40.1296 28.0137 40.3118 28.0137C40.494 28.0137 41.1387 27.6353 41.7694 27.1728C42.4001 26.7102 42.9608 26.3318 43.0168 26.3318C43.0729 26.3318 43.4934 26.7102 43.9559 27.1728L44.7688 27.9997L43.9979 29.0228C42.7786 30.6346 42.8066 30.4944 43.4373 31.91C43.7456 32.5828 44.096 33.4658 44.2362 33.8722C44.3623 34.2787 44.5726 34.6571 44.7127 34.7272C44.8389 34.7972 45.4836 34.9374 46.1283 35.0215C47.9643 35.2598 47.8242 35.1336 47.7821 36.5352L47.7401 37.7545L46.3105 37.9648C44.6987 38.203 44.4324 38.3712 44.1801 39.2682C44.082 39.5906 43.7597 40.4035 43.4513 41.0762C42.8066 42.4778 42.7786 42.3516 43.9839 43.9775L44.7548 45.0006L43.9419 45.8275C43.4934 46.29 43.0589 46.6544 42.9748 46.6544C42.9047 46.6544 42.3301 46.276 41.7274 45.8135C40.48 44.8745 40.1997 44.8184 39.3447 45.3089C39.0224 45.4911 38.3637 45.7855 37.8591 45.9537C36.4996 46.4162 36.3314 46.5143 36.1912 46.9908C36.0791 47.3272 35.7568 49.3594 35.7568 49.6818C35.7568 49.7799 33.2339 49.7379 33.2339 49.6257C33.2199 49.3174 32.8275 46.9628 32.7434 46.7666C32.6873 46.6404 32.351 46.4162 32.0006 46.29C30.7812 45.8415 29.66 45.365 29.3797 45.1688C28.8611 44.8044 28.4126 44.9445 27.2633 45.8135C26.6606 46.276 26.086 46.6544 26.0159 46.6544C25.9318 46.6544 25.4973 46.29 25.0488 45.8275L24.2359 45.0006L25.0068 43.9775C26.142 42.4638 26.1561 42.3797 25.5954 41.2164C25.3432 40.6698 25.0208 39.8709 24.8806 39.4504C24.5162 38.3011 24.292 38.161 22.6522 37.9367L21.2506 37.7545L21.2086 36.5352C21.1665 35.1336 20.9843 35.2878 22.9185 35.0075C23.5351 34.9234 24.1518 34.7832 24.292 34.6991C24.4321 34.601 24.6844 34.1245 24.8526 33.6199C25.0208 33.1154 25.3572 32.2744 25.6095 31.7559C26.1561 30.6066 26.142 30.5645 25.0208 29.0508L24.2219 27.9997L25.0488 27.1587C25.4973 26.7102 25.9178 26.3318 25.9739 26.3318C26.0299 26.3318 26.5905 26.7102 27.2212 27.1728C27.852 27.6353 28.4967 28.0137 28.6789 28.0137C28.8611 28.0137 29.4497 27.8035 29.9683 27.5372C30.4869 27.2849 31.1736 26.9905 31.482 26.9065C32.2949 26.6542 32.6453 26.458 32.7434 26.2057C32.8275 26.0095 33.2199 23.6548 33.2339 23.3465C33.2339 23.2904 33.7946 23.2484 34.4813 23.2484H35.7287L35.8829 24.4677Z" fill="#DC040C"/>
<path d="M32.828 29.92C27.7263 31.2935 26.0024 37.5725 29.7025 41.2867C32.3655 43.9496 36.6263 43.9496 39.2892 41.2867C41.3215 39.2404 41.8541 36.1569 40.5927 33.55C39.2191 30.6909 35.8414 29.1071 32.828 29.92ZM36.3459 32.1905C37.9998 32.9193 39.1491 34.6433 39.1491 36.4092C39.1631 37.7687 38.8267 38.6517 37.9157 39.6328C36.8785 40.7541 36.0656 41.1185 34.4959 41.1185C32.9261 41.1185 32.1132 40.7541 31.0761 39.6328C30.1931 38.6797 29.8147 37.7547 29.8147 36.4933C29.8147 34.4611 31.1602 32.639 33.1364 31.9943C33.9493 31.728 35.519 31.8261 36.3459 32.1905Z" fill="#DC040C"/>
<path d="M8.02001 23.4726C7.40333 24.2575 7.83781 24.8601 9.47764 25.4768C10.7951 25.9814 11.2716 26.0094 11.6501 25.631C12.0004 25.2806 12.0285 24.4957 11.6921 24.2014C11.2997 23.879 9.23937 23.1082 8.74882 23.1082C8.44048 23.1082 8.21623 23.2203 8.02001 23.4726Z" fill="#DC040C"/>
<path d="M58.5887 23.5708C57.2152 24.1455 57.061 24.2856 57.061 24.9444C57.061 25.547 57.4254 25.9114 58.0421 25.9114C58.6308 25.9114 60.607 25.0845 60.9574 24.7061C61.3358 24.2716 61.3498 23.9493 60.9714 23.4727C60.579 22.9822 59.9623 23.0102 58.5887 23.5708Z" fill="#DC040C"/>
<path d="M2.58224 33.1997C1.95153 33.452 1.81138 34.2089 2.27389 34.7975L2.5542 35.1619H6.11417H9.67413L9.95444 34.7975C10.3188 34.335 10.3329 33.8865 9.98247 33.466C9.71618 33.1297 9.70216 33.1297 6.29637 33.1016C4.4323 33.0876 2.75042 33.1297 2.58224 33.1997Z" fill="#DC040C"/>
<path d="M59.3459 33.1997C58.7152 33.452 58.575 34.2089 59.0376 34.7975L59.3179 35.1619H62.8778H66.4378L66.7181 34.7975C67.0825 34.335 67.0965 33.8865 66.7461 33.466C66.4798 33.1297 66.4658 33.1297 63.06 33.1016C61.196 33.0876 59.5141 33.1297 59.3459 33.1997Z" fill="#DC040C"/>
</svg>
