<svg width="75" height="75" viewBox="0 0 75 75" fill="none" xmlns="http://www.w3.org/2000/svg">
<path d="M20.8006 7.24736C20.4674 7.5165 20.4674 7.54214 20.4289 9.32361L20.3905 11.1307L19.7368 11.3486C19.378 11.4768 18.7884 11.7203 18.4296 11.8869L17.7759 12.2073L16.7122 11.1307C15.5587 9.95161 15.0589 9.61838 14.6359 9.73373C14.2643 9.82344 9.68882 14.4501 9.68882 14.7321C9.68882 15.1422 10.0477 15.6421 11.1371 16.7058L12.2136 17.7696L11.8932 18.4232C11.7266 18.7821 11.4831 19.3716 11.3549 19.7305L11.1371 20.3841L9.32996 20.4226C6.80514 20.4738 6.97176 20.179 7.02302 24.4469C7.06147 27.4075 7.0871 27.7663 7.29216 27.9714C7.48441 28.1636 7.81763 28.2149 9.31715 28.2662L11.1242 28.3302L11.4703 29.2274C11.6625 29.7144 11.9189 30.2911 12.0214 30.509L12.2265 30.8935L10.9576 32.188C10.0861 33.0851 9.68882 33.5721 9.68882 33.7772C9.68882 33.9951 10.3425 34.7384 12.0855 36.4942C14.1105 38.5192 14.5462 38.9037 14.8666 38.9037C15.1614 38.9037 15.4818 38.6602 16.4943 37.6734L17.7503 36.4302L18.4296 36.7506C18.8012 36.93 19.4164 37.1863 19.7881 37.3145L20.4545 37.558V39.3138C20.4545 41.7874 20.1213 41.5952 24.3507 41.5952H27.747L28.0034 41.2619C28.2469 40.9543 28.2725 40.7493 28.2725 39.2113V37.5196L28.7595 37.3529C29.0159 37.276 29.6054 37.0325 30.054 36.8403L30.8742 36.4686L32.1302 37.6862C33.9117 39.4036 33.6554 39.4676 36.5647 36.5583C39.474 33.649 39.4099 33.9053 37.6925 32.1239L36.475 30.8679L36.8466 30.0476C37.0389 29.5991 37.2824 29.0095 37.3593 28.7404L37.5259 28.2662H39.2177C40.7556 28.2662 40.9607 28.2405 41.2683 27.997L41.6015 27.7407V24.3444C41.6015 20.115 41.7938 20.4482 39.3074 20.4482H37.5259L37.4362 20.1021C37.3977 19.9099 37.1542 19.3075 36.8979 18.7564L36.4365 17.7439L37.6669 16.4879C38.6666 15.4755 38.9101 15.155 38.9101 14.8603C38.9101 14.5399 38.5256 14.1041 36.5006 12.0791C34.7448 10.3361 34.0014 9.68246 33.7835 9.68246C33.5785 9.68246 33.0915 10.0798 32.1943 10.9513L30.8999 12.2201L30.5154 12.015C30.3103 11.9125 29.7336 11.6562 29.2337 11.4639L28.3366 11.1179L28.2725 9.31079C28.2212 7.81128 28.17 7.47805 27.9777 7.28581C27.7727 7.08075 27.4138 7.05511 24.4532 7.01667C21.262 6.97822 21.1338 6.99104 20.8006 7.24736ZM26.4782 10.4899C26.4782 12.4892 26.4526 12.4508 27.8239 12.8737C28.3238 13.0403 29.2466 13.4248 29.9002 13.7324C31.31 14.4245 31.2203 14.4501 32.7582 12.9378L33.8476 11.8612L35.3215 13.3351L36.7826 14.7962L35.6035 16.0009C34.796 16.834 34.4244 17.3082 34.4244 17.5132C34.4244 17.6799 34.6422 18.2438 34.9242 18.7821C35.1933 19.3075 35.5778 20.2175 35.7701 20.807C35.9751 21.4479 36.2186 21.9349 36.3853 22.0502C36.5903 22.1912 37.0389 22.2425 38.2308 22.2425H39.8072V24.3572V26.4719H38.1667C37.0517 26.4719 36.4493 26.5231 36.3084 26.6257C36.193 26.7154 35.9495 27.2537 35.7701 27.8176C35.5778 28.3687 35.2062 29.2787 34.9242 29.8298C34.655 30.3809 34.4244 30.9576 34.4244 31.1242C34.4244 31.3036 34.8345 31.8163 35.6035 32.5853L36.7954 33.7772L35.283 35.2767L33.7835 36.789L32.5916 35.5971C31.8226 34.8281 31.31 34.418 31.1306 34.418C30.9639 34.418 30.3872 34.6487 29.8361 34.9178C29.285 35.1998 28.375 35.5715 27.8239 35.7637C27.26 35.9431 26.7217 36.1867 26.6448 36.302C26.5295 36.443 26.4782 37.0454 26.4782 38.1604V39.8009H24.3635H22.2488V38.2245C22.2488 37.0325 22.1976 36.584 22.0566 36.3789C21.9412 36.2123 21.4542 35.9688 20.8134 35.7637C20.2239 35.5715 19.3139 35.187 18.7884 34.9178C18.2501 34.6359 17.6862 34.418 17.5196 34.418C17.3145 34.418 16.8403 34.7897 16.0073 35.5971L14.8025 36.7762L13.3415 35.3151L11.8676 33.8413L12.9442 32.7519C14.4565 31.2139 14.4309 31.3036 13.7388 29.8938C13.4312 29.2402 13.0467 28.3046 12.8801 27.8176C12.4571 26.4462 12.4956 26.4719 10.4962 26.4719H8.79168V24.37V22.2681L10.5347 22.2168C12.5469 22.1656 12.4571 22.2297 12.8929 20.7942C13.0467 20.2944 13.4312 19.3844 13.7388 18.7693C14.0848 18.0644 14.2643 17.5517 14.2258 17.4107C14.1745 17.2826 13.6234 16.6546 13.0083 16.0266L11.8676 14.8731L13.3799 13.3608L14.8794 11.8612L15.9688 12.9634C16.5712 13.5658 17.1864 14.1169 17.3402 14.181C17.5709 14.2707 17.8913 14.1682 18.8141 13.7068C19.4677 13.3992 20.3776 13.0275 20.839 12.8866C22.2104 12.4764 22.1719 12.5405 22.2232 10.5283L22.2745 8.78532H24.3763H26.4782V10.4899Z" fill="#DC040C"/>
<path d="M22.3772 16.8085C18.9553 17.7312 16.6099 20.7559 16.6099 24.2547C16.6099 25.6517 16.7893 26.4592 17.3917 27.7152C18.2888 29.5863 19.9421 31.0346 21.9543 31.701C23.3128 32.1496 25.2224 32.1752 26.5425 31.7651C29.0161 30.9833 30.9898 29.0096 31.7716 26.5361C32.2073 25.1263 32.1561 23.2935 31.6562 21.8581C31.4384 21.2557 31.0539 20.4227 30.7847 20.0254C29.7851 18.513 27.9139 17.2058 26.2093 16.7956C25.184 16.5521 23.3 16.5649 22.3772 16.8085ZM26.0811 18.6412C27.1577 18.9744 27.837 19.4102 28.6316 20.2432C31.9382 23.7293 29.9901 29.4197 25.2224 30.2015C23.441 30.4963 21.5826 29.9068 20.2113 28.5867C18.8912 27.3307 18.3401 25.9209 18.4298 23.9856C18.4682 22.9603 18.5323 22.6912 18.9553 21.8196C19.6986 20.2432 21.0059 19.1154 22.6976 18.5771C23.4922 18.3208 25.1712 18.3592 26.0811 18.6412Z" fill="#DC040C"/>
<path d="M43.6264 13.8733C43.3316 14.1937 43.3316 14.8345 43.6264 15.1165C43.7545 15.2318 44.3697 15.5009 44.9849 15.706C49.1886 17.1286 53.2771 20.0892 55.8788 23.6009L56.7118 24.7287L56.3145 25.2157C54.2895 27.779 56.071 31.5983 59.2879 31.5983C60.5311 31.5983 61.2745 31.3035 62.1203 30.4576C63.0175 29.5477 63.3123 28.7787 63.2354 27.4586C63.1713 25.9975 62.4536 24.8697 61.1463 24.1904C60.608 23.9085 60.326 23.8444 59.3905 23.8316L58.2754 23.8059L57.3014 22.5115C54.4946 18.7819 50.6753 15.9367 46.1896 14.2193C44.6517 13.6298 43.9211 13.54 43.6264 13.8733ZM60.5311 25.9078C61.2104 26.4205 61.4026 26.8178 61.4026 27.6893C61.4026 28.3173 61.3385 28.5864 61.1335 28.8556C60.2363 30.0603 58.5574 30.1244 57.6731 28.9709C56.8656 27.9072 57.2629 26.2923 58.4549 25.754C58.9803 25.4977 60.1082 25.5874 60.5311 25.9078Z" fill="#DC040C"/>
<path d="M46.9976 33.7259C46.7541 34.0335 46.7285 34.2385 46.7285 35.7765V37.4683L46.2543 37.6349C45.9851 37.7118 45.3956 37.9553 44.947 38.1475L44.1268 38.5192L42.8708 37.3016C41.0893 35.5843 41.3456 35.5202 38.4363 38.4295C35.527 41.3388 35.5911 41.0825 37.3085 42.8639L38.526 44.1199L38.1543 44.9402C37.9621 45.3888 37.7186 45.9783 37.6417 46.2346L37.4751 46.7217H35.7833C34.2454 46.7217 34.0403 46.7473 33.7327 46.9908L33.3995 47.2471V50.6435C33.3995 54.8728 33.2072 54.5396 35.6808 54.5396H37.4366L37.6801 55.2061C37.8083 55.5777 38.0646 56.1929 38.2441 56.5646L38.5645 57.2439L37.3213 58.4999C36.3344 59.5124 36.0909 59.8328 36.0909 60.1275C36.0909 60.448 36.4754 60.8837 38.5004 62.9087C40.2562 64.6517 40.9996 65.3053 41.2174 65.3053C41.4225 65.3053 41.9095 64.908 42.8067 64.0365L44.1011 62.7677L44.4856 62.9728C44.7035 63.0753 45.2802 63.3316 45.7672 63.5239L46.6644 63.8699L46.7285 65.6898C46.8182 68.1762 46.4978 67.9968 50.6375 67.9968C54.8156 67.9968 54.5208 68.1634 54.5721 65.6642L54.6105 63.8571L55.2642 63.6392C55.623 63.5111 56.2126 63.2676 56.5714 63.1009L57.2251 62.7805L58.2888 63.8571C59.4423 65.0362 59.9421 65.3694 60.3651 65.2541C60.7752 65.1516 65.3122 60.5377 65.3122 60.2173C65.3122 59.8712 64.7482 59.1407 63.6845 58.0897L62.7873 57.2182L63.1078 56.5646C63.2744 56.2057 63.5179 55.6162 63.646 55.2573L63.8639 54.6037L65.671 54.5653C68.1958 54.514 68.0292 54.8088 67.978 50.5409C67.9395 47.5804 67.9139 47.2215 67.7088 47.0164C67.5166 46.8242 67.1834 46.7729 65.6838 46.7217L63.8767 46.6576L63.5307 45.7604C63.3384 45.2606 63.0821 44.6839 62.9796 44.4788L62.7745 44.0943L64.0433 42.7999C64.9149 41.9027 65.3122 41.4157 65.3122 41.2106C65.3122 40.9928 64.6585 40.2494 62.9155 38.4936C60.8905 36.4686 60.4548 36.0841 60.1344 36.0841C59.8396 36.0841 59.5192 36.3276 58.5067 37.3145L57.2507 38.5576L56.4176 38.1603C55.9691 37.9425 55.3667 37.699 55.0719 37.6092L54.5464 37.4554V35.674C54.5464 33.2004 54.8797 33.3927 50.6503 33.3927H47.2539L46.9976 33.7259ZM52.7522 36.7634C52.7522 37.9553 52.8034 38.4039 52.9444 38.6089C53.0597 38.7755 53.5468 39.019 54.1876 39.2241C54.7771 39.4163 55.6871 39.8008 56.2126 40.07C56.7509 40.3519 57.3148 40.5698 57.4814 40.5698C57.6864 40.5698 58.1606 40.1981 58.9937 39.3907L60.1984 38.2116L61.6595 39.6727L63.1334 41.1466L62.0568 42.2359C60.5445 43.7739 60.5701 43.6842 61.2622 45.094C61.5698 45.7476 61.9543 46.6704 62.1209 47.1702C62.5438 48.5416 62.5054 48.5159 64.5047 48.5159H66.2093V50.6178V52.7197L64.4663 52.771C62.4541 52.8222 62.5438 52.7582 62.1081 54.1936C61.9543 54.6934 61.5698 55.6034 61.2622 56.2314C60.8136 57.1157 60.7239 57.4105 60.8136 57.6412C60.8777 57.8078 61.4288 58.423 62.0312 59.0253L63.1334 60.1147L61.6339 61.6142L60.1215 63.1266L58.9681 61.9859C58.3401 61.3707 57.7121 60.8196 57.5839 60.7684C57.4429 60.7299 56.9687 60.8965 56.3535 61.2041C55.8024 61.4733 54.8412 61.8706 54.226 62.0884C53.6108 62.2935 53.0341 62.537 52.9572 62.6139C52.8675 62.7036 52.8034 63.447 52.7778 64.4851L52.7265 66.2025L50.6631 66.1769L48.5868 66.1384L48.5484 64.4595C48.5099 62.4986 48.5356 62.537 47.177 62.1013C46.69 61.9475 45.7544 61.563 45.1008 61.2426C43.691 60.5633 43.7807 60.5377 42.2428 62.05L41.1534 63.1266L39.6795 61.6527L38.2184 60.1916L39.3975 58.9869C40.205 58.1538 40.5766 57.6796 40.5766 57.4746C40.5766 57.308 40.3587 56.744 40.0768 56.2057C39.8076 55.6803 39.4232 54.7703 39.2309 54.1808C39.0258 53.54 38.7823 53.0529 38.6157 52.9376C38.4107 52.7966 37.9621 52.7453 36.7702 52.7453H35.1938V50.6306V48.5159H36.8086C37.6929 48.5159 38.526 48.4519 38.6542 48.3878C38.808 48.2981 39.0002 47.9136 39.1668 47.324C39.3206 46.8242 39.7051 45.8886 40.0127 45.2734C40.3203 44.6454 40.5766 44.0174 40.5766 43.8636C40.5766 43.6842 40.1537 43.1587 39.3975 42.4026L38.2056 41.2106L39.7179 39.7111L41.2174 38.1988L42.4094 39.3907C43.1783 40.1597 43.691 40.5698 43.8704 40.5698C44.037 40.5698 44.6138 40.3391 45.1649 40.07C45.716 39.788 46.6259 39.4163 47.177 39.2241C47.741 39.0447 48.2792 38.8012 48.369 38.6858C48.4715 38.5448 48.5228 37.9425 48.5228 36.8274V35.187H50.6375H52.7522V36.7634Z" fill="#DC040C"/>
<path d="M49.3299 43.0176C47.2024 43.3764 45.1517 44.799 43.9983 46.7471C41.3709 51.1816 43.7932 56.9105 48.8428 58.1921C49.8169 58.4356 51.5855 58.4356 52.5596 58.1921C55.0075 57.5513 56.9812 55.7955 57.8912 53.4501C58.2116 52.6298 58.3141 52.1684 58.3654 51.1816C58.4807 48.7337 57.7758 46.8625 56.0969 45.1835C54.277 43.3636 51.8675 42.5946 49.3299 43.0176ZM51.7393 44.799C52.8031 45.0041 53.9694 45.6065 54.7896 46.4011C56.1097 47.6571 56.6608 49.0669 56.5711 51.0022C56.5327 52.0275 56.4686 52.2966 56.0456 53.1681C55.4304 54.4882 54.4949 55.4238 53.1748 56.039C52.3033 56.4619 52.0341 56.526 51.0088 56.5644C49.1504 56.6542 47.9457 56.2184 46.6128 54.9752C45.1774 53.6551 44.4725 51.6173 44.7801 49.759C45.3568 46.4139 48.484 44.1839 51.7393 44.799Z" fill="#DC040C"/>
<path d="M14.1744 43.6072C13.3669 43.902 12.2391 45.0555 11.9571 45.8757C11.2779 47.8494 12.0981 49.8744 13.9565 50.8484C14.3794 51.0791 14.7383 51.1432 15.6098 51.156L16.7248 51.1817L17.7245 52.5018C19.3906 54.719 21.7232 56.8849 24.107 58.4229C26.1448 59.7302 29.8103 61.3322 30.7972 61.3322C31.4764 61.3322 31.8737 60.3325 31.3739 59.8712C31.2457 59.7558 30.6305 59.4867 30.0154 59.2816C25.6322 57.8077 21.249 54.5139 18.6857 50.7972L18.3012 50.2333L18.6729 49.7975C20.762 47.2727 18.9164 43.3637 15.6482 43.4022C15.1612 43.4022 14.4948 43.5047 14.1744 43.6072ZM16.9042 45.6066C18.0834 46.5037 18.0321 48.1698 16.8145 49.0798C16.5454 49.2849 16.2762 49.3489 15.6482 49.3489C14.7767 49.3489 14.3794 49.1567 13.8924 48.5031C13.1619 47.529 13.6104 45.8757 14.7511 45.3631C15.3535 45.0811 16.3788 45.1964 16.9042 45.6066Z" fill="#DC040C"/>
</svg>
