<svg width="39" height="39" viewBox="0 0 39 39" fill="none" xmlns="http://www.w3.org/2000/svg">
<circle cx="19.4237" cy="19.7315" r="18.9862" fill="#DC040C"/>
<path d="M26.9721 21.4479V26.6709H23.944V21.7976C23.944 20.573 23.5059 19.7378 22.4102 19.7378C21.5735 19.7378 21.0752 20.3012 20.8565 20.8456C20.7765 21.0402 20.756 21.3113 20.756 21.5838V26.6709H17.7265C17.7265 26.6709 17.7676 18.4177 17.7265 17.562H20.756V18.853L20.7362 18.8828H20.756V18.853C21.158 18.2337 21.8765 17.3482 23.4854 17.3482C25.4779 17.3482 26.9721 18.6506 26.9721 21.4479ZM14.5584 13.1714C13.5228 13.1714 12.8447 13.8509 12.8447 14.7449C12.8447 15.619 13.503 16.3191 14.5187 16.3191H14.5385C15.5953 16.3191 16.2515 15.619 16.2515 14.7449C16.2331 13.8509 15.5953 13.1714 14.5584 13.1714ZM13.0245 26.6709H16.0526V17.562H13.0245V26.6709Z" fill="white"/>
</svg>
