<svg width="53" height="53" viewBox="0 0 53 53" fill="none" xmlns="http://www.w3.org/2000/svg">
<circle cx="26.32" cy="26.32" r="26.32" fill="white"/>
<path fill-rule="evenodd" clip-rule="evenodd" d="M24.353 24.001H27.1946V25.4165C27.604 24.6024 28.6537 23.871 30.2306 23.871C33.2536 23.871 33.9713 25.4915 33.9713 28.4647V33.9713H30.9108V29.1419C30.9108 27.4487 30.5015 26.4938 29.4594 26.4938C28.0141 26.4938 27.4135 27.5229 27.4135 29.1411V33.9713H24.353V24.001ZM19.1051 33.8412H22.1655V23.871H19.1051V33.8412ZM22.6039 20.62C22.6041 20.8765 22.5532 21.1305 22.4543 21.3672C22.3554 21.6039 22.2104 21.8186 22.0278 21.9987C21.6578 22.3665 21.157 22.5723 20.6353 22.571C20.1145 22.5707 19.6149 22.3654 19.2443 21.9995C19.0624 21.8187 18.9179 21.6038 18.8192 21.3671C18.7204 21.1304 18.6694 20.8765 18.6689 20.62C18.6689 20.102 18.8755 19.6062 19.2451 19.2405C19.6153 18.8741 20.1152 18.6687 20.6361 18.6689C21.1579 18.6689 21.6583 18.8748 22.0278 19.2405C22.3966 19.6062 22.6039 20.102 22.6039 20.62Z" fill="#1E1E1E"/>
</svg>
