<svg width="139" height="139" viewBox="0 0 139 139" fill="none" xmlns="http://www.w3.org/2000/svg">
<path d="M139 69.5C139 107.884 107.884 139 69.5 139C31.1162 139 0 107.884 0 69.5C0 31.1162 31.1162 0 69.5 0C107.884 0 139 31.1162 139 69.5ZM10.8753 69.5C10.8753 101.878 37.1225 128.125 69.5 128.125C101.878 128.125 128.125 101.878 128.125 69.5C128.125 37.1225 101.878 10.8753 69.5 10.8753C37.1225 10.8753 10.8753 37.1225 10.8753 69.5Z" fill="#EBE9E9"/>
<path d="M99.0379 12.6418C100.42 9.98202 99.3902 6.6843 96.6308 5.5142C83.5779 -0.02065 69.098 -1.44757 55.1414 1.4994C39.4091 4.82134 25.3154 13.4955 15.2615 26.0438C5.20773 38.5922 -0.184088 54.2383 0.00479544 70.3164C0.193679 86.3945 5.95158 101.91 16.2974 114.218C26.6432 126.527 40.9369 134.868 56.7429 137.819C72.5489 140.771 88.8893 138.15 102.98 130.404C117.07 122.659 128.039 110.267 134.018 95.3404C139.321 82.0987 140.406 67.5891 137.199 53.7788C136.521 50.8592 133.449 49.2779 130.591 50.1816C127.733 51.0853 126.176 54.1319 126.812 57.061C129.287 68.4654 128.311 80.3951 123.942 91.3048C118.897 103.9 109.641 114.357 97.7511 120.893C85.8612 127.429 72.0727 129.64 58.7352 127.149C45.3977 124.659 33.3364 117.621 24.6063 107.235C15.8762 96.8481 11.0176 83.756 10.8582 70.1889C10.6988 56.6218 15.2485 43.4192 23.7322 32.8306C32.2159 22.2419 44.1086 14.9225 57.3839 12.1194C68.8825 9.69139 80.8022 10.7819 91.611 15.1819C94.3871 16.312 97.6561 15.3016 99.0379 12.6418Z" fill="#DC040C"/>
</svg>
