<svg width="53" height="53" viewBox="0 0 53 53" fill="none" xmlns="http://www.w3.org/2000/svg">
<circle cx="26.6" cy="26.32" r="26.32" fill="white"/>
<path d="M34.6032 21.7295C34.014 21.9972 33.379 22.1732 32.721 22.2574C33.3943 21.8519 33.9146 21.2092 34.1594 20.4364C33.5243 20.819 32.8204 21.0868 32.0783 21.2398C31.4738 20.5818 30.6246 20.1992 29.6605 20.1992C27.8625 20.1992 26.3935 21.6682 26.3935 23.4816C26.3935 23.7417 26.4241 23.9942 26.4776 24.2314C23.7538 24.0937 21.3284 22.7853 19.714 20.8037C19.4309 21.2857 19.2702 21.8519 19.2702 22.4487C19.2702 23.5887 19.8441 24.5986 20.7316 25.1725C20.1884 25.1725 19.6834 25.0195 19.2396 24.7899V24.8129C19.2396 26.4043 20.372 27.7356 21.8716 28.034C21.3902 28.1658 20.8847 28.1841 20.3949 28.0876C20.6028 28.7398 21.0097 29.3105 21.5587 29.7195C22.1077 30.1285 22.771 30.3551 23.4554 30.3676C22.2952 31.2861 20.8571 31.7826 19.3773 31.7754C19.1172 31.7754 18.8571 31.7601 18.5969 31.7295C20.0506 32.663 21.7798 33.2062 23.6314 33.2062C29.6605 33.2062 32.9735 28.2023 32.9735 23.8641C32.9735 23.7188 32.9735 23.581 32.9658 23.4357C33.6085 22.9766 34.1594 22.3951 34.6032 21.7295Z" fill="#1E1E1E"/>
</svg>
